<?xml version="1.0" encoding="utf-8"?>
<!-- Generator: Adobe Illustrator 26.2.1, SVG Export Plug-In . SVG Version: 6.00 Build 0)  -->
<svg version="1.1" id="Layer_1" xmlns="http://www.w3.org/2000/svg" xmlns:xlink="http://www.w3.org/1999/xlink" x="0px" y="0px"
	 viewBox="0 0 257.6 668.7" style="enable-background:new 0 0 257.6 668.7;" xml:space="preserve">
<style type="text/css">
	.st0{fill:#010101;}
	.st1{fill:#FFFFFF;}
	.st2{fill:#FFC640;}
</style>
<g>
	<g>
		<polygon class="st0" points="184.7,571.1 191.1,564.5 209.9,560.2 197.7,541 163.8,544.8 132.4,434.9 43.1,430.5 4.2,324.4 
			14.6,302.9 92.9,397.3 159.8,425 179,524.6 207.4,524.3 225.8,565.2 238.1,566.1 231.8,599.2 227.2,603.9 		"/>
		<g>
			<polygon class="st1" points="231.8,599.2 211.4,581.8 191.1,564.5 222.3,557.4 253.4,550.3 242.6,574.8 			"/>
			<polygon class="st1" points="228.9,560.7 211.7,508.7 193,509.6 169.6,374.8 130.8,370 112,293.4 14.6,302.9 53.6,413.8 
				142.5,423.1 171.3,534 201.8,532.4 219.1,565.2 			"/>
		</g>
	</g>
	<g>
		<path class="st0" d="M198.1,374.8c0,0,3.2,3.1,5.4,4.1l1.8-2l-0.9-2l2.1,0.1l11.2-15.7l-14.6,8
			C203.1,367.4,197.7,370.8,198.1,374.8z"/>
		<path class="st0" d="M169.6,413.8c0,0,1.6,4.1,3.1,6l2.5-1l0-2.2l1.9,1l16.8-9.4l-16.6,1C177.3,409.2,171,409.9,169.6,413.8z"/>
		<path class="st0" d="M112.1,343c0,0,27.3-1.7,41.7,0.2c8.1,1.1,42.5,20.9,48.4,24.8c0,0-1.8,4.3-4.1,6.8c0,0-43.6-12.9-49.4-12.7
			c-5.9,0.2-24.1,7-24.1,7s-25-4.7-32.6-5.5C84.4,362.9,100.3,344.6,112.1,343z"/>
		<polygon class="st1" points="62.8,292.5 66.1,303.8 74.9,307.9 78.7,299.3 72.2,290 		"/>
		<path class="st1" d="M106.2,245.9c0,0,1.5,48.9-33.1,56.4c-54.7,11.8-59.6-40.2-59.6-40.2l-6.8,1.2c0,0-8.3,42,39,62.7
			c0,0,6,22.5,22.8,43.9c0,0,23.8-5.2,43.7-26.9c0,0-7.3-7-11.6-30.6c0,0,19.7-26.4,12.5-66.6L106.2,245.9z"/>
		<path class="st0" d="M69.8,370.1c0,0,7.4,11.7,21.8,14.3c10.7,1.9,29.2-10.4,40.1-5.9c10.9,4.5,37.8,35.2,37.8,35.2
			s5.1-1.9,7.7-4.6c0,0-20-36-33.2-46.3c-1.2-1-2.4-1.7-3.5-2.2c-12.8-5.5-43.4-5-43.4-5S82.8,356.1,69.8,370.1z"/>
		<g>
			<path class="st0" d="M97.2,355.7c4.8,0.3,13.7,0.5,23.9,1.5c5.1,0.5,9.8,1.2,13.8,2.1c1,0.3,1.9,0.5,2.8,0.7
				c0.9,0.3,1.7,0.6,2.5,0.8c1.6,0.6,2.8,1.4,3.8,2.1c-0.9-0.8-2-1.7-3.6-2.4c-0.8-0.3-1.6-0.7-2.5-1c-0.9-0.3-1.9-0.6-2.8-0.9
				c-4-1.1-8.8-1.9-13.9-2.4C111,355.2,102,355.4,97.2,355.7z"/>
		</g>
		<path class="st1" d="M6.6,263.4c0,0-3-9-2.1-11.7c0.9-2.7,5.5-6.5,7.4-5.7c1.9,0.8,2.3,9.8,2.3,10.5c0,0,1.6-2,2.7-3.2
			c0.9-0.1,0.8,1.4,0.5,2.4c-0.2,1.1-2.5,5.5-4.1,6.4C13.4,262.2,10.1,266.1,6.6,263.4z"/>
		<path class="st1" d="M113,245.8c0,0,1.1-9.4-0.3-11.9c-1.4-2.5-6.7-5.2-8.4-4.1c-1.7,1.1-0.3,10.1-0.1,10.8c0,0-1.9-1.6-3.3-2.6
			c-0.9,0.1-0.5,1.5,0,2.5c0.5,1,3.6,4.9,5.3,5.4C106.2,245.9,110.2,249.2,113,245.8z"/>
		<path class="st2" d="M100.5,312.4c0,0,9.8-13.1,13-34.8l-11.9-3.3c-3.9,11.1-11,22.2-24.1,26.8l-3,4.4l-5.4-2.4
			c-20.8,3.5-33.9-2.6-42.1-11.1l-12.2,9.3c5.8,9.1,15.3,18.1,30.8,24.9c0,0,6,22.5,22.8,43.9c0,0,23.8-5.2,43.7-26.9
			C112.1,343,104.8,336,100.5,312.4z"/>
		<path class="st0" d="M57.6,289.3c0,0-6.6-2.7-9.7-8.1c-3.1-5.4-3.3-13.2-2.6-14.1s2.2,1.6,2.2,1.6s0.8-6.6,6.8-8.8
			c6-2.2,13.7-2.9,15.8-8.5c1.2-3.2,6,1.6,6.1,10.6c0.1,8.9-4.7,13-4.7,12.8C71.5,274.4,57.6,289.3,57.6,289.3z"/>
		<path class="st1" d="M71.8,265.9c0,0,2.6,13.8,4.5,20.2c-0.2,2.7-4.6,7.7-7.2,8.4c-2.6,0.7-9-1.3-10.5-3.4l-2.8-5.6
			c0,0-2.6-0.1-3.7-2.1c-1.1-2,0.1-3.6,1.9-3.2l2.4,0.9l-3.1-6.2c0,0,3-1.4,5-2.2L55,271C55,271,66.3,271.3,71.8,265.9z"/>
		<g>
			<path class="st0" d="M71.4,305.1l3.1,0.4l2.2-3.2c0,0,3.6,4.7-0.4,6.4C72,310.4,71.4,305.1,71.4,305.1z"/>
			<path class="st0" d="M77.1,306.7c0,0,1.8,15.1,20.8,15c15.4,0,19.5-24.2,19.5-24.2s3.4-4,8.7-6.6c0,0,4.5,6,4.8,10
				c0,0-11.5,29.8-34.2,27.4c-22.1-2.4-22.4-20.5-22.4-20.5L77.1,306.7z"/>
			<path class="st0" d="M65.2,300.8c0,0,6.3,0,9.3,4.7c0,0-6.2,0.5-10.8,6.9C63.7,312.4,61.1,306.5,65.2,300.8z"/>
			<path class="st0" d="M74.5,305.5c0,0,3.4-4.2,10-2.5c0,0-1.8-4.7-7.3-5.8C77.2,297.1,74.6,300.2,74.5,305.5z"/>
		</g>
		<polygon class="st0" points="12.3,300.6 15.6,305.8 29.6,293 27.3,290.3 		"/>
		<polygon class="st0" points="100.6,272.2 99.4,275.6 115,281.5 115.7,276.2 		"/>
		<g>
			<path class="st0" d="M69.4,284.8c0.6,0.2,1.6,0,2.5-0.6c0.2-0.2,0.4-0.3,0.7-0.5l0.3-0.3c0,0,0,0,0.1-0.1l0-0.1l-0.1-0.2
				c-0.1-0.2-0.2-0.3-0.2-0.5c-0.3-0.5-0.5-1.1-0.8-1.7c-1.2-2.3-2.4-4.2-3.2-5.2c0.4,1.2,1.3,3.2,2.5,5.5c0.3,0.6,0.6,1.1,0.9,1.6
				l0.1,0.2l0.1,0.1l0,0c0,0,0,0,0,0c-0.2,0.2-0.4,0.4-0.5,0.5C70.8,284.4,70,284.8,69.4,284.8z"/>
		</g>
	</g>
	<g>
		<path class="st1" d="M145.5,84.9c2.5,5,12.7,4.9,22.9-0.1c10.2-5,16.4-13.2,14-18.1l-3-6l-36.9,18.3L145.5,84.9z"/>
		<path class="st1" d="M156.5,60.8c-10.2,5-16.4,13.2-14,18.1c2.5,5,12.7,4.9,22.9-0.1c10.2-5,16.4-13.2,14-18.1
			C176.9,55.6,166.7,55.7,156.5,60.8z"/>
		<path class="st2" d="M157,61.7c-9.3,4.6-15.1,12-12.9,16.4c2.2,4.4,11.6,4.3,20.9-0.3c9.3-4.6,15.1-12,12.9-16.4
			S166.3,57.1,157,61.7z"/>
		<g>
			<g>
				<g>
					<g>
						<path class="st0" d="M181.5,73.2c-0.6-0.5-1.3-1.5-2-2.8c-0.6-1.3-1-2.5-1-3.2c0.6,0.5,1.3,1.5,2,2.8
							C181.2,71.3,181.5,72.5,181.5,73.2z"/>
					</g>
				</g>
				<g>
					<g>
						<path class="st0" d="M177.9,78.2c-0.6-0.5-1.3-1.5-2-2.7c-0.6-1.3-1-2.5-1-3.2c0.6,0.5,1.3,1.5,2,2.7
							C177.5,76.2,177.9,77.4,177.9,78.2z"/>
					</g>
				</g>
				<g>
					<g>
						<path class="st0" d="M173.3,81.8c-0.6-0.5-1.3-1.5-2-2.7c-0.6-1.3-1-2.5-1-3.2c0.6,0.5,1.3,1.5,2,2.7
							C173,79.9,173.3,81.1,173.3,81.8z"/>
					</g>
				</g>
				<g>
					<g>
						<path class="st0" d="M168.4,84.8c-0.6-0.5-1.3-1.5-2-2.8c-0.6-1.3-1-2.5-1-3.2c0.6,0.5,1.3,1.5,2,2.8
							C168,82.8,168.4,84,168.4,84.8z"/>
					</g>
				</g>
				<g>
					<g>
						<path class="st0" d="M151,88.3c-0.6-0.5-1.3-1.5-2-2.8c-0.6-1.3-1-2.5-1-3.2c0.6,0.5,1.3,1.5,2,2.8
							C150.6,86.4,151,87.6,151,88.3z"/>
					</g>
				</g>
				<g>
					<g>
						<path class="st0" d="M157.4,88.3c-0.6-0.5-1.3-1.5-2-2.7c-0.6-1.3-1-2.5-1-3.2c0.6,0.5,1.3,1.5,2,2.7
							C157,86.4,157.4,87.6,157.4,88.3z"/>
					</g>
				</g>
				<g>
					<g>
						<path class="st0" d="M163.1,86.9c-0.6-0.5-1.3-1.5-2-2.8c-0.6-1.3-1-2.5-1-3.2c0.6,0.5,1.3,1.5,2,2.8
							C162.7,85,163.1,86.2,163.1,86.9z"/>
					</g>
				</g>
			</g>
		</g>
	</g>
	<g>
		<path class="st1" d="M184.1,224.6c-4.7-3-13.4,2.2-19.6,11.8c-6.2,9.5-7.5,19.7-2.8,22.7l5.6,3.7l22.4-34.5L184.1,224.6z"/>
		
			<ellipse transform="matrix(0.5453 -0.8382 0.8382 0.5453 -124.6665 261.2238)" class="st1" cx="178.5" cy="245.5" rx="20.6" ry="10"/>
		
			<ellipse transform="matrix(0.5453 -0.8382 0.8382 0.5453 -124.6664 261.2249)" class="st2" cx="178.5" cy="245.5" rx="19.3" ry="9.1"/>
		<g>
			<g>
				<g>
					<path class="st0" d="M159,253c0.7,0.1,1.9,0.6,3.1,1.4c1.2,0.8,2.1,1.6,2.5,2.3c-0.7-0.1-1.9-0.6-3.1-1.4
						C160.3,254.5,159.4,253.7,159,253z"/>
				</g>
				<g>
					<path class="st0" d="M159.6,246.9c0.7,0.1,1.9,0.6,3.1,1.4c1.2,0.8,2.1,1.6,2.5,2.3c-0.7-0.1-1.9-0.6-3.1-1.4
						C160.9,248.4,160,247.6,159.6,246.9z"/>
				</g>
				<g>
					<path class="st0" d="M161.7,241.4c0.7,0.1,1.9,0.6,3.1,1.4c1.2,0.8,2.1,1.6,2.5,2.3c-0.7-0.1-1.9-0.6-3.1-1.4
						C163,242.9,162,242.1,161.7,241.4z"/>
				</g>
				<g>
					<path class="st0" d="M164.4,236.4c0.7,0.1,1.9,0.6,3.1,1.4c1.2,0.8,2.1,1.6,2.5,2.3c-0.7-0.1-1.9-0.6-3.1-1.4
						C165.7,237.9,164.8,237,164.4,236.4z"/>
				</g>
				<g>
					<path class="st0" d="M177.6,224.5c0.7,0.1,1.9,0.6,3.1,1.4c1.2,0.8,2.1,1.6,2.5,2.3c-0.7-0.1-1.9-0.6-3.1-1.4
						C178.9,226,177.9,225.1,177.6,224.5z"/>
				</g>
				<g>
					<path class="st0" d="M172.1,227.7c0.7,0.1,1.9,0.6,3.1,1.4c1.2,0.8,2.1,1.6,2.5,2.3c-0.7-0.1-1.9-0.6-3.1-1.4
						C173.4,229.2,172.5,228.4,172.1,227.7z"/>
				</g>
				<g>
					<path class="st0" d="M167.9,231.8c0.7,0.1,1.9,0.6,3.1,1.4c1.2,0.8,2.1,1.6,2.5,2.3c-0.7-0.1-1.9-0.6-3.1-1.4
						C169.2,233.3,168.3,232.5,167.9,231.8z"/>
				</g>
			</g>
		</g>
	</g>
	<g>
		<path class="st1" d="M207.3,122.7c-3.5,1-4.5,8.4-2.2,16.6c2.3,8.2,7,14.1,10.5,13.1l4.2-1.2l-8.2-29.8L207.3,122.7z"/>
		
			<ellipse transform="matrix(0.9638 -0.2666 0.2666 0.9638 -28.5694 62.4187)" class="st1" cx="215.6" cy="136.4" rx="6.6" ry="15.4"/>
		<path class="st2" d="M221.2,134.9c-2.1-7.7-6.3-13.2-9.4-12.4c-3,0.8-3.8,7.8-1.7,15.4c2.1,7.7,6.3,13.2,9.4,12.4
			C222.5,149.5,223.3,142.6,221.2,134.9z"/>
		<g>
			<g>
				<g>
					<path class="st0" d="M211.3,150.8c0.4-0.4,1.1-0.7,2-1c0.9-0.3,1.7-0.3,2.2-0.2c-0.4,0.4-1.1,0.7-2,1
						C212.6,150.9,211.8,150.9,211.3,150.8z"/>
				</g>
				<g>
					<path class="st0" d="M208.4,147.3c0.4-0.4,1.1-0.7,2-1c0.9-0.2,1.7-0.3,2.2-0.2c-0.4,0.4-1.1,0.7-2,1
						C209.7,147.4,208.9,147.5,208.4,147.3z"/>
				</g>
				<g>
					<path class="st0" d="M206.5,143.4c0.4-0.4,1.1-0.7,2-1c0.9-0.2,1.7-0.3,2.2-0.2c-0.4,0.4-1.1,0.7-2,1
						C207.8,143.5,206.9,143.6,206.5,143.4z"/>
				</g>
				<g>
					<path class="st0" d="M205.1,139.4c0.4-0.4,1.1-0.7,2-1c0.9-0.3,1.7-0.3,2.2-0.2c-0.4,0.4-1.1,0.7-2,1
						C206.4,139.4,205.5,139.5,205.1,139.4z"/>
				</g>
				<g>
					<path class="st0" d="M204.5,126.2c0.4-0.4,1.1-0.7,2-1c0.9-0.3,1.7-0.3,2.2-0.2c-0.4,0.4-1.1,0.7-2,1
						C205.8,126.2,205,126.3,204.5,126.2z"/>
				</g>
				<g>
					<path class="st0" d="M203.8,130.8c0.4-0.4,1.1-0.7,2-1c0.9-0.2,1.7-0.3,2.2-0.2c-0.4,0.4-1.1,0.7-2,1
						C205.2,130.9,204.3,130.9,203.8,130.8z"/>
				</g>
				<g>
					<path class="st0" d="M204.2,135.2c0.4-0.4,1.1-0.7,2-1c0.9-0.3,1.7-0.3,2.2-0.2c-0.4,0.4-1.1,0.7-2,1
						C205.5,135.2,204.7,135.3,204.2,135.2z"/>
				</g>
			</g>
		</g>
	</g>
	<g>
		<path class="st1" d="M213.4,82c-0.5-7.8-0.9-22.3-0.9-38.9c0-16.6,0.3-31.1,0.9-38.9c0.5,7.8,0.9,22.2,0.9,38.9
			C214.2,59.7,213.9,74.2,213.4,82z"/>
	</g>
	<g>
		<path class="st1" d="M215.5,349.5c-0.5-5.3-0.9-15.2-0.9-26.6c0-11.4,0.3-21.3,0.9-26.6c0.5,5.3,0.9,15.2,0.9,26.6
			C216.4,334.3,216,344.2,215.5,349.5z"/>
	</g>
	<g>
		<path class="st1" d="M64.8,241.4c-0.5-7.8-0.9-22.3-0.9-38.9c0-16.6,0.3-31.1,0.9-38.9c0.5,7.8,0.9,22.2,0.9,38.9
			C65.6,219.2,65.3,233.7,64.8,241.4z"/>
	</g>
	<g>
		<path class="st1" d="M22.5,624.8c0.5-13.4,0.9-38.3,0.9-67c0-28.6-0.3-53.6-0.9-67c-0.5,13.4-0.9,38.3-0.9,67
			C21.7,586.5,22,611.4,22.5,624.8z"/>
	</g>
	<g>
		<path class="st1" d="M107.5,209.2c0.5-10.6,0.9-30.4,0.9-53s-0.3-42.4-0.9-53c-0.5,10.6-0.9,30.4-0.9,53S107,198.6,107.5,209.2z"
			/>
	</g>
	<g>
		<path class="st1" d="M149.5,664.4c0.5-10.4,0.9-29.7,0.9-51.8c0-22.2-0.3-41.5-0.9-51.8c-0.5,10.4-0.9,29.7-0.9,51.8
			C148.7,634.8,149,654.1,149.5,664.4z"/>
	</g>
	<g>
		<path class="st1" d="M88,514.4c0.5-6.1,0.9-17.5,0.9-30.5s-0.3-24.4-0.9-30.5c-0.5,6.1-0.9,17.5-0.9,30.5S87.5,508.3,88,514.4z"/>
	</g>
	<g>
		<path class="st1" d="M100.5,543.6c2.9,3.7-0.9,11.6-8.5,17.6c-7.6,6-16.2,7.8-19.1,4.1l-3.5-4.5L97,539.1L100.5,543.6z"/>
		<path class="st1" d="M77.9,543.2c7.6-6,16.2-7.8,19.1-4.1c2.9,3.7-0.9,11.6-8.5,17.6c-7.6,6-16.2,7.8-19.1,4.1
			C66.5,557,70.3,549.2,77.9,543.2z"/>
		<path class="st2" d="M78.6,544c7.1-5.6,15-7.5,17.5-4.2c2.6,3.3-1.1,10.4-8.2,16c-7.1,5.6-15,7.5-17.5,4.2
			C67.8,556.8,71.5,549.6,78.6,544z"/>
		<g>
			<g>
				<g>
					<path class="st0" d="M78.3,567c-0.1-0.6-0.6-1.6-1.4-2.5c-0.8-1-1.6-1.7-2.1-2c0.1,0.6,0.6,1.6,1.4,2.5
						C76.9,566,77.7,566.8,78.3,567z"/>
				</g>
				<g>
					<path class="st0" d="M83.5,566c-0.1-0.6-0.6-1.6-1.4-2.5c-0.8-1-1.6-1.7-2.1-2c0.1,0.6,0.6,1.6,1.4,2.5
						C82.1,565,82.9,565.8,83.5,566z"/>
				</g>
				<g>
					<path class="st0" d="M88,563.9c-0.1-0.6-0.6-1.6-1.4-2.5c-0.8-1-1.6-1.7-2.1-1.9c0.1,0.6,0.6,1.6,1.4,2.5
						C86.6,562.9,87.4,563.6,88,563.9z"/>
				</g>
				<g>
					<path class="st0" d="M92,561.1c-0.1-0.6-0.6-1.6-1.4-2.5c-0.8-1-1.6-1.7-2.1-2c0.1,0.6,0.6,1.6,1.4,2.5
						C90.7,560.1,91.5,560.9,92,561.1z"/>
				</g>
				<g>
					<path class="st0" d="M101.2,549.1c-0.1-0.6-0.6-1.6-1.4-2.5c-0.8-1-1.6-1.7-2.1-2c0.1,0.6,0.6,1.6,1.4,2.5
						C99.8,548.1,100.6,548.8,101.2,549.1z"/>
				</g>
				<g>
					<path class="st0" d="M98.8,554c-0.1-0.6-0.6-1.6-1.4-2.5c-0.8-1-1.6-1.7-2.1-2c0.1,0.6,0.6,1.6,1.4,2.5
						C97.4,553,98.2,553.7,98.8,554z"/>
				</g>
				<g>
					<path class="st0" d="M95.7,557.8c-0.1-0.6-0.6-1.6-1.4-2.5c-0.8-1-1.6-1.7-2.1-2c0.1,0.6,0.6,1.6,1.4,2.5
						C94.3,556.9,95.1,557.6,95.7,557.8z"/>
				</g>
			</g>
		</g>
	</g>
	<g>
		<path class="st1" d="M23.2,10.6c-2.9,3.7,0.9,11.6,8.5,17.6c7.6,6,16.2,7.8,19.1,4.1l3.5-4.5L26.7,6.1L23.2,10.6z"/>
		<path class="st1" d="M45.8,10.2c-7.6-6-16.2-7.8-19.1-4.1c-2.9,3.7,0.9,11.6,8.5,17.6c7.6,6,16.2,7.8,19.1,4.1
			C57.2,24.1,53.4,16.2,45.8,10.2z"/>
		<path class="st2" d="M45.3,10.8c-7.2-5.6-15.1-7.4-17.8-4c-2.7,3.4,1,10.7,8.1,16.4c7.2,5.6,15.1,7.4,17.8,4
			C56.2,23.8,52.5,16.5,45.3,10.8z"/>
		<g>
			<g>
				<g>
					<path class="st0" d="M45.4,34.1c0.1-0.6,0.6-1.6,1.4-2.5c0.8-1,1.6-1.7,2.1-2c-0.1,0.6-0.6,1.6-1.4,2.5
						C46.8,33.1,46,33.8,45.4,34.1z"/>
				</g>
				<g>
					<path class="st0" d="M40.2,33.1c0.1-0.6,0.6-1.6,1.4-2.5c0.8-1,1.6-1.7,2.1-2c-0.1,0.6-0.6,1.6-1.4,2.5
						C41.6,32.1,40.8,32.8,40.2,33.1z"/>
				</g>
				<g>
					<path class="st0" d="M35.7,31c0.1-0.6,0.6-1.6,1.4-2.5c0.8-1,1.6-1.7,2.1-1.9c-0.1,0.6-0.6,1.6-1.4,2.5
						C37.1,30,36.3,30.7,35.7,31z"/>
				</g>
				<g>
					<path class="st0" d="M31.7,28.2c0.1-0.6,0.6-1.6,1.4-2.5c0.8-1,1.6-1.7,2.1-2c-0.1,0.6-0.6,1.6-1.4,2.5
						C33.1,27.2,32.3,27.9,31.7,28.2z"/>
				</g>
				<g>
					<path class="st0" d="M22.5,16.2c0.1-0.6,0.6-1.6,1.4-2.5c0.8-1,1.6-1.7,2.1-2c-0.1,0.6-0.6,1.6-1.4,2.5
						C23.9,15.2,23.1,15.9,22.5,16.2z"/>
				</g>
				<g>
					<path class="st0" d="M24.9,21c0.1-0.6,0.6-1.6,1.4-2.5c0.8-1,1.6-1.7,2.1-2c-0.1,0.6-0.6,1.6-1.4,2.5
						C26.3,20.1,25.5,20.8,24.9,21z"/>
				</g>
				<g>
					<path class="st0" d="M28.1,24.9c0.1-0.6,0.6-1.6,1.4-2.5c0.8-1,1.6-1.7,2.1-2C31.5,21,31,22,30.2,23
						C29.4,23.9,28.6,24.6,28.1,24.9z"/>
				</g>
			</g>
		</g>
	</g>
</g>
</svg>
