<?xml version="1.0" encoding="utf-8"?>
<!-- Generator: Adobe Illustrator 26.2.1, SVG Export Plug-In . SVG Version: 6.00 Build 0)  -->
<svg version="1.1" id="Layer_1" xmlns="http://www.w3.org/2000/svg" xmlns:xlink="http://www.w3.org/1999/xlink" x="0px" y="0px"
	 viewBox="0 0 497 316.5" style="enable-background:new 0 0 497 316.5;" xml:space="preserve">
<style type="text/css">
	.st0{fill:#FFC640;}
	.st1{fill:#010101;}
	.st2{fill:#FFFFFF;}
	.st3{fill:#F3A398;}
	.st4{fill:#0C0D18;}
</style>
<g>
	<g>
		<g>
			<g>
				<path class="st0" d="M433.3,274.6c-1.5-2.8-3.7-5.9-6.4-9c-7.5-8.7-18-17.6-22.4-20c-3-1.7-2.6-8.2-1.9-16.3
					c1-12.1,2.4-27.6-6.7-35.7c-9.9-8.7-15.8-2.5-18.8,2.9c-0.1,0-0.2,0-0.3,0c-7.5,0.6-13.3,5.4-13.3,5.4s-1.6,11.2-0.5,23.1
					c0.2,2.1,0.4,4.3,0.6,6.5c0.1,0.6,0.1,1.3,0.2,1.9c1.2,12.6,2.6,24.9,3.6,27.7c1.2,3.6,4.3,18.5,6.7,30.5
					c1.8,8.9,3.2,16.3,3.2,16.3l4.5-4.6c0,0,0.5-5.7,1-13.1c0.8-12.5,1.4-29.8-1-33c-1-1.3-0.8-4.2-0.1-8.2c0.5-2.6,1.2-5.6,2-8.9
					c2.1,7.5,4.3,13.5,6,14.8c3.2,2.5,19.6,11.2,31.9,17.7c7.9,4.2,14.1,7.4,14.1,7.4l1.4-5.8L433.3,274.6z"/>
				<path class="st0" d="M333.3,147.4c0,0-1-1.4-2.2-2.3c-1.2-0.9-2.4-2.6-2-3.1c0.4-0.5,3.9-3.1,3.9-3.1l1.9,4.6L333.3,147.4z"/>
				<polygon class="st1" points="363.6,93.4 394.1,81.3 411.2,97.8 382.2,109.1 				"/>
				<path class="st0" d="M346.9,158.7L334.7,143l-1.4,4.3c0,0,12.5,28.3,18.2,25.7C354.1,171.8,346.9,158.7,346.9,158.7z"/>
				<path class="st1" d="M384.9,107.7c0,0-5.9,3.5-2.3,10.3c0,0-5.2-1-6.3-2.5c0,0,0.1,0.6,0.3,1c0,0-6.1-0.8-7.2-3
					c-2.3-4.7,3.3-4.4,5.7-9.2c3.2-6.3,8.1-11.3,15.2-7.8c0,0,9.8-0.5,5.4,12.1c-4.4,12.6-0.2,13.7-0.2,13.7s-1.3,0.3-1.9,0.1
					c0,0-0.7-0.5-0.8-1c0,0,0,0.8,0.1,1c0,0-4.7-0.8-6.5-3.1C384.6,116.9,383.6,110.2,384.9,107.7z"/>
				<path class="st0" d="M376.3,128C376.3,128,376.3,128,376.3,128C376.3,128,376.3,128,376.3,128z"/>
				<path class="st0" d="M390.8,123.9c0.2,1.6,0.4,3,0.5,3.6c0.1,0.5,1.1,9-0.8,9.1c-2,0.1-6.9,10.2-9.1,10.1
					c-2.5-0.1-4.7-18.7-5-18.7c0.6-0.3,2.6-6.4,3.2-8.7c0.7-2.8,1.3-5.9,1.3-5.9l10,0.6l0.6,0c-0.4,1.4-0.6,2.7-0.8,3.9
					c0,0.2,0,0.3-0.1,0.5C390.4,119.8,390.5,121.9,390.8,123.9z"/>
				<path class="st1" d="M379.4,112.4c0,0-1.6-5.2-1.3-9.1c0.2-2.8,4.7-10.8,14.4-6.7c0,0,2.4-0.6,4.6,2c1.8,2,4.1,6.1-1.7,13.9
					l-1.7,2.7L379.4,112.4z"/>
				<path class="st0" d="M390.8,123.9c-7-2.1-10-10.2-10-10.2c3,0.1,6.8,2.1,9.9,4.2c0,0.2,0,0.3-0.1,0.5
					C390.4,119.8,390.5,121.9,390.8,123.9z"/>
				<path class="st0" d="M391.3,121c0,0-12.7-3.1-10.6-11c2.1-7.9,1.8-13.6,10-11.9c8.2,1.7,9,5.1,8.9,7.9
					C399.5,108.8,394.6,121.6,391.3,121z"/>
				<path class="st1" d="M396.5,99.5c0,0-5.9,8.3-11.6,8.3c-5.7,0-7.6-2.1-7.6-2.1s4.9-2.2,7.3-7.6C384.6,98.1,395,94.4,396.5,99.5z
					"/>
				<path class="st1" d="M395.4,100c0,0,2,2.7,2.1,4.9c0.1,2.2-0.7,6.4,0.5,6.5c0,0,4.3-5.6,2.3-9.9C398.2,96.9,395.4,100,395.4,100
					z"/>
				<path class="st1" d="M395.8,100.4c0,0-5,9-12.5,10.3c0,0,8.3-4.2,10.5-10.4C396.1,94.1,395.8,100.4,395.8,100.4z"/>
				<path class="st2" d="M389.3,116c0,0,0.2,1.2,0.9,1.5c0.8,0.3,2.8,0.8,3,0.7c0.2-0.1,1-1.1,1-1.1S391,115.8,389.3,116z"/>
				<path class="st0" d="M384.5,236.2c-6.1-4.4-14.8-12.3-17.9-25.2c-0.6-6.4,4.5-12.5,10.1-14.5c4.4-0.4,8.6,1,10.6,6.5
					C390.4,210.9,387.4,224.5,384.5,236.2z"/>
				<path class="st0" d="M406.9,158.2l30.2,7.8v3.5c0,0-30-0.4-32-3.7C403.2,162.4,406.9,158.2,406.9,158.2z"/>
				<path class="st0" d="M437.1,165.9c0,0,5.5-2.7,7.7-3c2.2-0.3,5.9-0.4,5.9,0c0,0.4-4,2.8-5,3c-1.1,0.2-3.1,1.7-2.5,1.8
					c0.6,0.2,3.9-0.6,3.9,0c0,0.6-2,0.9-2.3,1.4c-0.4,0.4-1.6,1-3.6,0.7c-2-0.3-4.2-0.4-4.2-0.4V165.9z"/>
				<path class="st1" d="M437.1,248.9c-19.5,28-69.7,31.2-69.7,31.2c-8.2-29.8-4.8-105.1-2.9-133c-0.1-4.9,0.1-9,0.9-10.6
					c1.3-2.5,8-6.8,10.5-8.9c0,0,0.6-0.2,1.1-0.3c0.4,1.3,4.9,16.6,5.3,16.3c0.4-0.3,8.1-14.9,8.9-16.6c0.8,0,1.4,0,1.5,0.1
					c1.3,0.1,8.6,1.5,9.2,2.7c0.2,0.4,2.3,5.9,4.9,13.3c0,0,0,0,0,0c4.9,13.7,12.1,11.2,15,15.2c1.8,2.6,1,7.3-2.3,11.4
					c-0.3,0.3-0.6,0.7-0.9,1c-2.5,2.7-6,4.3-11.6,3.5c-1.4-0.2-4.2-1.6-6.5-3.5C405.9,191.3,437.1,248.9,437.1,248.9z"/>
				<path class="st0" d="M377.2,126.5l-2.6,1.5c0,0,7.2,20.4,7.6,20.3c0.4-0.1,11.2-21.3,11.2-21.3l-2.2-0.9l-8.9,17.4L377.2,126.5z
					"/>
				<path class="st1" d="M399.6,100.2c0,0-9.2-5.2-24.5,3.9l0.7-2.5c0.6-2.2,2.1-4.1,4.1-5.2c2.3-1.2,5.9-2.4,10.9-2.4
					c3.5,0,6.7,2,8.2,5.1L399.6,100.2z"/>
				<g>
					<g>
						<path class="st1" d="M353.6,106.9l-0.2-0.8c8.2-2.4,9.9-10.9,10.2-12.9c0-0.3,0.2-0.5,0.5-0.5l0,0c0.2-0.1,0.5,0.1,0.4,0.4
							C364.2,95.4,362.1,104.4,353.6,106.9z"/>
					</g>
					<polygon class="st0" points="353.4,106.1 352.3,106.1 352.7,107.4 353.6,106.9 					"/>
					<path class="st0" d="M352.3,106.1c0,0-1.5,0.4-1.8,0c0,0,0,1.3,0.5,1.6c0,0,1.2,0,1.7-0.3L352.3,106.1z"/>
				</g>
				<path class="st2" d="M377.7,128.3c0,0,2.4,4.4,12,0.4l-7.5,14.8L377.7,128.3z"/>
				<path class="st1" d="M374.5,128c0,0-1.3,42.2-11.7,50.3c-0.7,0.6-1.5,1-2.3,1.2c-5.3,1.3-9.1-1.8-11.7-6.1
					c-3.6-6-4.8-14.4-4.2-16.3c1.2-3.7,3.8,2.8,9.4,1c5.6-1.8,7.1-24.4,11-27.7C366.2,129.6,374.5,128,374.5,128z"/>
				<g>
					<path class="st1" d="M323.8,158c0,0-1.6-0.8-3.1-1.9c-0.7-0.5-1.4-1.1-1.8-1.6c-0.3-0.3-0.5-0.6-0.6-0.9
						c0,0,12.7-15.3,13.7-17.1c1-1.8,10.6-16.6,10.6-16.6s1.2,0.6,2.6,1.5c0.5,0.3,1.1,0.7,1.6,1.2c1,0.8,1.9,1.7,2.5,2.7
						c0,0-13.9,14.1-14.9,16.2C333.3,143.4,323.8,158,323.8,158z"/>
					<path class="st1" d="M320.7,156.1c-0.7-0.5-1.4-1.1-1.8-1.6c-0.3-0.3-0.5-0.6-0.6-0.9c0,0,12.7-15.3,13.7-17.1
						c1-1.8,10.6-16.6,10.6-16.6s1.2,0.6,2.6,1.5c0.5,0.3,1.1,0.7,1.6,1.2c-3.9,4-14.5,14.9-15.4,16.8
						C330.5,141.1,323.6,151.7,320.7,156.1z"/>
					<path class="st1" d="M333.8,133.5c0,0-3.7,3.6-4.2,6.1l3.9,3.1c0,0,3.4-3.4,4.5-5.8L333.8,133.5z"/>
				</g>
				<path class="st0" d="M334.7,143c0,0,0.3-2.5-0.3-3.3c-0.6-0.9-0.6-3.3-1.1-3c-0.5,0.3-0.2,2.2-0.5,3.2c-0.3,0.9-0.8,5.3,0.5,6.2
					C334.6,146.9,334.7,143,334.7,143z"/>
				<path class="st0" d="M330.9,136.9c0,0-1.6-0.2-2.1,0.8c-0.6,1-1.3,2.7-0.2,3.4C329.7,141.7,330.9,136.9,330.9,136.9z"/>
				<path class="st1" d="M386.2,310l-2.4,1.3c-0.9,0.3-1.6,0.4-2.5,0.7c-1.4,0.5-2.3,1.5-2.3,1.7c-0.7,2.8-1.6,2.7-1.6,2.7h-9.7
					c-0.5-0.2,0.3-2.2,0.7-2.6c0.9-0.9,3.7-0.4,4.7-3.3c0.6-1.6,3.4-6.6,3.4-6.6l0,0c0.1,0,0.6-0.2,3.4,0.4c1.4,0.3,2.1-2.6,2.1-2.6
					s0.5,0.1,1,0.5c0.4,0.3,0.8,0.7,1.1,1.5c0.3,1,1.8,2.5,2.8,3.4c0.6,0.6,1.1,1,1.1,1S388.2,308.6,386.2,310z"/>
				<path class="st1" d="M445.2,276.5C445.2,276.5,445.1,276.5,445.2,276.5c-0.2-0.1-1.1-0.3-1.6-1.7c-0.4-0.9-0.5-1.6-0.8-2.5
					l-1.4-2.4c-1.4-1.9-1.9-1.5-1.9-1.5s-0.4,0.5-0.9,1.1c-0.9,1.1-2.3,2.5-3.3,2.9c-0.7,0.3-1.2,0.7-1.4,1.1c-0.3,0.5-0.4,1-0.4,1
					s3,0.5,2.7,2c-0.5,2.8-0.4,3.3-0.3,3.4l0,0c0,0,5,2.6,6.7,3.2c2.9,0.9,4.4,2.9,5.3,3.8c0.4,0.4,0.9,0.5,1.4,0.4
					c0.8-0.1,1.7-0.4,2-0.8L445.2,276.5z"/>
				<path class="st2" d="M380.2,156.6c0-0.8,0.7-1.5,1.5-1.5c0.8,0,1.5,0.7,1.5,1.5c0,0.8-0.7,1.5-1.5,1.5
					C380.8,158,380.2,157.4,380.2,156.6z"/>
				<path class="st2" d="M380.2,167.4c0-0.8,0.7-1.5,1.5-1.5c0.8,0,1.5,0.7,1.5,1.5c0,0.8-0.7,1.5-1.5,1.5
					C380.8,168.8,380.2,168.2,380.2,167.4z"/>
			</g>
			<g>
				<path class="st0" d="M237.6,58.6c0,0,2.6-2.4,3.3-4c0.6-1.7,0.6-4.4,0.6-6.2c0,0-0.8-0.3-1,0.6c-0.2,0.9-0.5,2.8-1.3,3.2
					c-0.7,0.4-2.4,0.4-2.7,2.4C236,56.7,237.6,58.6,237.6,58.6z"/>
				<path class="st0" d="M231.6,59c0,0-2.4-4.9-1.9-6.5c0.5-1.6,7.8-3.3,8.8-2.6c1,0.7,0,9.9,0,9.9L231.6,59z"/>
				<path class="st0" d="M308.5,205.8c0,0-0.3,4,1,5.9c1.4,1.9,2.2,3.7,2.6,2.8c0.5-0.9-0.8-3.9-0.3-3.8c0.4,0.1,1.5,3.6,2.1,4.7
					c0.6,1.1,1.8,2.9,2.6,2c0.8-0.9-0.8-9.2-1.4-10.2c-0.6-1-2-3.4-2-3.4L308.5,205.8z"/>
				<polygon class="st1" points="258.2,84.6 286.1,68.9 304.8,92.1 279.3,104.5 				"/>
				<path class="st1" d="M269.9,92c0,0-0.6,2.5-2.2,3.4c-1.6,0.9,0.9,3.3,0.3,5.1c-0.6,1.8,1.9,4.1,1.9,4.1l18,2.1
					c0,0,2.6-1.1,2.9-4.2c0.2-3.1,0.5-6.9,0.5-6.9l-7.9-6l-11.3,0.5L269.9,92z"/>
				<g>
					<path class="st1" d="M209.5,62c0,0-0.8-2-1.4-4.1c-0.3-1-0.5-2-0.5-2.9c0-0.5,0-0.9,0.1-1.3c0,0,23.2-4.8,25.4-5.7
						c2.3-0.9,22.2-7.6,22.2-7.6s0.7,1.4,1.3,3.3c0.2,0.7,0.5,1.5,0.6,2.3c0.3,1.5,0.5,3,0.3,4.4c0,0-23.5,2.8-25.9,4
						C229.2,55.5,209.5,62,209.5,62z"/>
					<path class="st1" d="M208.1,57.9c-0.3-1-0.5-2-0.5-2.9c0-0.5,0-0.9,0.1-1.3c0,0,23.2-4.8,25.4-5.7c2.3-0.9,22.2-7.6,22.2-7.6
						s0.7,1.4,1.3,3.3c0.2,0.7,0.5,1.5,0.6,2.3c-6.6,0.8-24.5,3.1-26.8,4.2C228.3,51.2,214,55.9,208.1,57.9z"/>
					<path class="st1" d="M237,46.6c0,0-6.2,0.6-8.4,2.6l1.3,5.8c0,0,5.7-0.6,8.5-2.1L237,46.6z"/>
				</g>
				<path class="st1" d="M242.7,316.5c0,0,0-3.7,0.5-5c0.5-1.2,2.5-6.3,2.5-6.3h7.6c0,0,1.4,4.6,1.5,6.1c0.1,1.5,0,5.1,0,5.1H242.7z
					"/>
				<path class="st1" d="M290.9,316.5c0,0,0-3.7-0.5-5c-0.5-1.2-2.5-6.3-2.5-6.3h-7.6c0,0-1.4,4.6-1.5,6.1c-0.1,1.5,0,5.1,0,5.1
					H290.9z"/>
				<path class="st0" d="M271.9,107c0,0-1.5,8.1-3.1,11.7l-9.2,4.5l12.9,25.4l17.7-15.9l-5.9-11.4c0,0-0.6-11.3,1.2-15.2
					C287.3,102.1,271.9,107,271.9,107z"/>
				<path class="st0" d="M277.7,112.6c-3.4-0.6-8.9-6-8-11.6l1.3-8.7c0.3-2,2-3.5,3.7-3.2l12.9,2c1.7,0.3,2.9,2.1,2.6,4.2l-1.3,8.2
					C288.1,109.3,281.6,113.3,277.7,112.6z"/>
				<path class="st0" d="M243.6,187.6c0-1,1.3,40.3-0.7,63.8c-2,23.2,0,55.4,0,55.4s6.4,3.5,13.3,0c0,0,7.6-44.8,7.5-55.4
					c-0.1-11.3,8.2-62,8.2-62L243.6,187.6z"/>
				<path class="st0" d="M290.7,306.8c0,0-6.4,3.5-13.3,0c0,0-7.6-44.8-7.5-55.4c0-4.8-1.4-16.6-3.1-28.6
					c-2.3-16.5-5.1-33.4-5.1-33.4l29.5-1.8c0,0-2.4,40.7-0.4,63.9C292.7,274.5,290.7,306.8,290.7,306.8z"/>
				<g>
					<g>
						<path class="st1" d="M275,101.6c-1.3-0.2-3.7-0.9-3.8-3.1c0-0.7,0.2-1.2,0.6-1.6c0.5-0.4,1.2-0.6,2-0.5l3.9,0.6
							c0.7,0.1,1.2,0.4,1.4,0.9c0.4,0.8-0.2,1.8-0.4,2.2c-0.8,1.3-1.8,1.9-2.9,1.7C275.6,101.7,275.4,101.7,275,101.6z M273.7,96.6
							c-0.7-0.1-1.3,0.1-1.7,0.4c-0.4,0.3-0.6,0.8-0.5,1.4c0.1,1.2,0.8,2,2.2,2.5c1.1,0.4,2.1,0.4,2.1,0.4l0,0
							c1.1,0.2,1.9-0.3,2.7-1.6c0.2-0.3,0.7-1.2,0.4-1.9c-0.2-0.4-0.6-0.6-1.2-0.7L273.7,96.6z"/>
					</g>
					<g>
						<path class="st1" d="M283.9,103c-0.4-0.1-0.7-0.1-0.7-0.1c-1.2-0.2-1.9-1-2.3-2.5c-0.1-0.4-0.3-1.6,0.3-2.2
							c0.3-0.4,0.9-0.5,1.6-0.4l3.9,0.6c0.8,0.1,1.4,0.5,1.7,1.1c0.3,0.5,0.3,1.1,0.1,1.8C287.7,103.3,285.1,103.2,283.9,103z
							 M282.8,98c-0.6-0.1-1.1,0-1.4,0.3c-0.5,0.6-0.3,1.6-0.2,1.9c0.4,1.4,1,2.2,2.1,2.3l0,0c0,0,1,0.3,2.2,0.2
							c1.5-0.1,2.4-0.7,2.8-1.7c0.2-0.6,0.2-1.1-0.1-1.5c-0.3-0.5-0.8-0.8-1.5-0.9L282.8,98z"/>
					</g>
					<g>
						<path class="st1" d="M278.5,98.9c-0.1,0-0.1-0.1-0.1-0.1c0-0.1,0-0.2,0.1-0.2c0.1,0,1.7-0.5,2.9,0.5c0.1,0.1,0.1,0.1,0,0.2
							c-0.1,0.1-0.1,0.1-0.2,0C280.1,98.5,278.6,98.9,278.5,98.9C278.6,98.9,278.6,98.9,278.5,98.9z"/>
					</g>
				</g>
				<path class="st2" d="M275.1,123.1l-8.7-3.8c0,0-4.5,35.8,1.5,38c0,0,17.1-30.4,16-34.3L275.1,123.1z"/>
				<path class="st1" d="M269.6,117.1c0,0-2.5,0.4-3.7,1.6c0,0,1.9,6.1,6.8,7.9l2.1-3.5C274.8,123.1,270.8,121.2,269.6,117.1z"/>
				<path class="st1" d="M274.8,123.1c0,0,8.1-0.3,9.3-4.2c0,0,1.6,1.7,1.6,4.4c0,0-2.6,3.9-9,3.9L274.8,123.1z"/>
				<path class="st2" d="M275.5,106.5c0,0,4.3,0.2,6.2,1c0,0-1.3,1.6-3,1.3C277,108.5,275.8,107.7,275.5,106.5z"/>
				<path class="st0" d="M245,93.8c-3.9,2.5-9.3,5.8-13.6,8.4c-0.2-0.7-0.4-1.4-0.5-2c-1.4-9.2,0.7-41.2,0.7-41.2s1.5-0.7,3-0.9
					c2.8-0.2,3.9,1.7,3.9,1.7S243.4,88,245,93.8z"/>
				<path class="st1" d="M314.3,205.2l-3,1.2c-4.7,1.7-9.8-0.6-11.4-5.4c-2.1-6.4-2.3-13.3-3.1-19c-0.4-2.8-0.8-8.6-2.5-13.1
					c0,0,0,0,0,0l3,99.5c-44.4,3.1-66.1-22.4-66.1-22.4c-1.1-26.9,9.6-87.7,13.5-108.7c-1.9-4.3-15.3-16.5-17.6-28.6
					c-1-5.6,2.2-9.6,6.2-12.2c5-3.4,11.1-4.7,11.1-4.7l14.4,19.2c0.6,0.7,1,1.2,1.2,1.6c1.1,2.3,6.9,6,6.9,6
					c0,0.1,0.6,32.4,1.8,33.4c1.7-0.6,13-23.3,15.5-30.9c3.6,1,7.5,2.3,11.6,4.1c0,0,7.8,4.1,8.9,22.2c0.9,15.3,10.3,34.9,12.4,52.7
					C317.4,202.4,316.2,204.4,314.3,205.2z"/>
				<path class="st0" d="M265.3,117.6c0,0,1,31.3,2.4,39.1l19.9-34.4l-2.7-1l-15.8,28.5l-1.6-31.1L265.3,117.6z"/>
				<path class="st2" d="M269.6,116.3c0,0-2.5,0.4-3.7,1.6c0,0,1.9,6.1,6.8,7.9l2.1-2.7C274.8,123.1,270.8,120.5,269.6,116.3z"/>
				<path class="st2" d="M274.8,123.1c0,0,8.1-1,9.3-5c0,0,1.6,1.7,1.6,4.4c0,0-2.6,3.9-9,3.9L274.8,123.1z"/>
				<path class="st2" d="M264.3,162.3c0-0.8,0.7-1.5,1.5-1.5c0.8,0,1.5,0.7,1.5,1.5c0,0.8-0.7,1.5-1.5,1.5
					C265,163.8,264.3,163.1,264.3,162.3z"/>
				<path class="st2" d="M261.6,175.6c0-0.8,0.7-1.5,1.5-1.5c0.8,0,1.5,0.7,1.5,1.5c0,0.8-0.7,1.5-1.5,1.5
					C262.2,177.1,261.6,176.4,261.6,175.6z"/>
				<g>
					<g>
						<path class="st1" d="M260.2,99.2l0.5-0.5c-4.9-5.2-2.6-12.1-2-13.7c0.1-0.2,0-0.4-0.1-0.6l0,0c-0.2-0.2-0.4-0.1-0.5,0.1
							C257.4,86.5,255.1,93.8,260.2,99.2z"/>
					</g>
					<polygon class="st3" points="260.7,98.8 261.5,99.2 260.7,100 260.2,99.2 					"/>
					<path class="st3" d="M261.5,99.2c0,0,0.9,0.9,1.3,0.8c0,0-0.5,0.9-1,1c0,0-0.9-0.5-1.1-0.9L261.5,99.2z"/>
				</g>
				<path class="st1" d="M270.4,93.8c0,0,3.5,0.2,4.5-1.5c0,0,2.8,0.7,4-0.3c0,0,4.3,0.9,4.4-0.9c0,0,3.3,6.6,6.9,5.2
					c3.6-1.4-5.8-8.1-5.8-8.1l-13.5,1.6L270.4,93.8z"/>
				<path class="st1" d="M270.6,88.9l-0.7,3.1c0,0,9.6-3.4,21.4,3.4l-0.1-5c0-1-0.5-1.9-1.2-2.5c-2.1-1.8-7.2-5.2-16.6-2.5
					C272,85.8,270.9,87.6,270.6,88.9z"/>
				<path class="st0" d="M228.6,51c0-0.2-0.7-1.5,0.2-2.7c0.9-1.2,6.6-3.1,7.1-2.1c0.5,1,0.2,4.4-1.6,5.2
					C232.4,52.1,228.7,51.8,228.6,51z"/>
				<path class="st1" d="M244.8,137.4c-1.9-4.3-15.3-16.5-17.6-28.6c-1-5.6,2.2-9.6,6.2-12.2c0,0-1.9,8.5,3.4,16.1
					C242.1,120.3,244.8,137.4,244.8,137.4z"/>
				<path class="st1" d="M311.3,206.4c-4.7,1.7-9.8-0.6-11.4-5.4c-2.1-6.4-2.3-13.3-3.1-19c-0.4-2.8-0.8-8.6-2.5-13.1
					c0.2,0.2,5.3,8.3,9.9,21.4C308.9,203.7,307.5,205.6,311.3,206.4z"/>
			</g>
			<path class="st0" d="M491.6,316.2h-25.1c-1.3-1.1,0.9-3.7,3.3-3.9c1-0.1,2.3,0.1,3.8,0.5c0.3-4.6,2.3-25.2,9.7-24.3
				c8.3,0.9,0,9.1-2.4,13.9c-1.7,3.6-3.6,8.7-4.4,11.1c0.7,0.1,1.4,0.3,2.1,0.4c1.1-3.4,5.2-14.8,10.5-14.2c6.1,0.8,3.7,5.4-0.7,8.1
				c-3.2,2-7.1,4.8-9,6.2c1.6,0.3,3.2,0.4,4.9,0.4C488.7,314.3,490.8,315.6,491.6,316.2z"/>
			<g>
				<path class="st0" d="M58,316.2c0,0-11.6-31.7-19.7-29C30.2,289.9,58,316.2,58,316.2z"/>
				<path class="st0" d="M53.6,316.2c-1,0-19.4-19.1-20.6-14.1C31.7,307.1,53.6,316.2,53.6,316.2z"/>
				<path class="st0" d="M73.2,316.2c0,0-7.6-7-17.3-5.2c-9.7,1.8-13.8,3.8-19.8,2.4c-6.1-1.4-9.2,2.7-9.2,2.7H73.2z"/>
			</g>
			<g>
				<path class="st0" d="M147.3,287.7c0,0,0-0.1,0-0.1c1.6-13.3,4.6-37.2,6.1-45.3c2.1-11.5-1.7-54.8-1.7-54.8s-17.2-2.9-19.4-1.3
					c-0.9-0.2-1.6-0.3-1.9,0c-13.6,13.2-10.5,47.3-13.1,49.3c-6.3,4.7-13.4,20.9-16.4,46.1c-0.7,3.2-1.3,5.9-1.6,7.5
					c-0.3,1.3-0.9,2.4-1.9,3.3c-0.7,0.7-1.7,1.6-2.7,2.7c0,0,0,0,0,0c0.1,0.3,5,15.8,5.8,15.8c0.8,0,7.2,0.6,7.2,0.6
					c-0.6-0.6-1.4-1.1-2.2-1.6c-1.4-0.8-0.9-10.1-0.9-13.6c0-1.2,0.3-2.4,0.9-3.5c0.7-1.4,2-3.8,3.5-6.7l0,0c0,0,0,0,0,0
					c6.2-11.9,17.4-33.2,21.7-40.2c1.7-2.7,3.7-7.8,5.9-13.8c0.7,2.6,1.1,4.4,0.7,5c-4.2,6.7-5.2,24.3,0.9,49v0c0,0,0,0,0,0
					c0.5,3.3,0.9,5.9,1.1,7.6c0.2,1.3,0,2.6-0.6,3.8c0,0,3.4,12.5,4.8,13.2c1.4,0.8,8.4-1.2,8.4-1.2c-1.3-0.9-3.9-7.7-5.1-10.9
					c-0.4-1.1-0.6-2.4-0.4-3.6C146.6,293.5,146.9,290.9,147.3,287.7z"/>
				<polygon class="st1" points="91.4,300.9 89.8,310.3 90.6,311 95.7,303.7 				"/>
				<path class="st1" d="M91.5,301.6c5.5,2.9,6.4,12.8,7.2,14.9h10.1c1.5-0.5,0.9-2.9-1.3-4.9c0,0-6.4-0.6-7.2-0.6
					c-0.8,0-5.7-15.5-5.8-15.8C92.3,297.7,90,300.8,91.5,301.6z"/>
				<polygon class="st1" points="136.8,307.2 138.1,316.5 139.6,316.5 140.3,309.2 				"/>
				<path class="st1" d="M136.8,307.2c3.1,1.4,6.4,7.6,8,9.3h12.8c1.6-1.3-4-5.7-5.7-6.9c0,0-7.1,2-8.4,1.2
					c-1.4-0.8-4.8-13.2-4.8-13.2C137.1,300.5,134.6,306.2,136.8,307.2z"/>
				<polygon class="st1" points="158,82.6 125.5,69.7 107.4,87.2 138.2,99.3 				"/>
				<path class="st1" d="M142.8,88.5c0,0,0.1,3.9,2.9,5.1c5.9,2.5,0.3,5.4,6,9.5c1.3,0.9,2.3,6.8-6.9,7.6
					c-9.2,0.9-10.3,1.6-10.3,1.6s-6.8,4.4-14.4-0.1c-4.4-2.6,1.1-9.9-0.9-11.7c-2.7-2.5-3.1-10.6,0.9-14c3.9-3.4,10.2-5.3,10.2-5.3
					L142.8,88.5z"/>
				<g>
					<g>
						<path class="st1" d="M168.6,96.9l0.2-0.8c-8.7-2.6-10.5-11.6-10.9-13.7c0-0.3-0.2-0.5-0.5-0.6l0,0c-0.3-0.1-0.5,0.2-0.5,0.4
							C157.4,84.7,159.5,94.2,168.6,96.9z"/>
					</g>
					<polygon class="st0" points="168.8,96.1 170,96.1 169.5,97.5 168.6,96.9 					"/>
					<path class="st0" d="M170,96.1c0,0,1.6,0.4,1.9,0c0,0,0,1.3-0.5,1.7c0,0-1.3,0-1.8-0.3L170,96.1z"/>
				</g>
				<path class="st0" d="M144.8,113.1c-0.6-0.1-2.6-1.6-3.5-4c-1.1-2.9-2-6-2-6l-2.8,0.5l-7.5,1.2l-0.6,0.1c0.6,1.6,1.1,3.1,1.4,4.5
					c0.6,2.5,0.8,4.6,0.7,6.2c-0.1,1.6-0.9,2-1.4,2.4c-0.2,0.1,8,26.9,11.9,25.6C144.4,142.3,145.1,113,144.8,113.1z"/>
				<path class="st0" d="M130.5,115.5c4.5-1.8,8.9-12.5,8.9-12.5c-0.9-0.1-1.9,0.1-2.8,0.5c-2.5,1-5,3.4-6.8,5.8
					C130.3,111.8,130.5,113.9,130.5,115.5z"/>
				<path class="st0" d="M127.6,111.2c0,0,13.5-2.2,12-10.5c-1.5-8.4-0.8-14.3-9.4-13.2c-8.7,1-9.8,4.5-9.9,7.4
					C120,97.8,124,111.5,127.6,111.2z"/>
				<path class="st0" d="M126.4,119c0,0-22.7-6.8-24.3-8.7c-1.6-1.9-5.5-27.1-5.5-30.8l-3.3,0.5c0,0-2.4,28.7,0.4,35.2
					c2.8,6.5,31.5,16.8,31.5,16.8L126.4,119z"/>
				<path class="st0" d="M144.1,112.7c0,0-2.8,8.7-13.7,3.2l11.5,25.2l3-22.6L144.1,112.7z"/>
				<path class="st0" d="M153.4,115.3c0,0-1.4,4.5,24.9,18.9l19.4-13.3l2.3,1.9c0,0-18.6,22.4-21.5,21.9
					c-2.9-0.5-22.9-13.6-22.9-13.6L153.4,115.3z"/>
				<path class="st1" d="M178.3,134.2c-10.7-6.1-12.7-15.7-17.9-19.2c-4.6-3.1-15.7-2.3-16.3-2.2l-2.4,24.1L130.4,116
					c0,0-18.2-1.6-28.4-5.7c0,0-30.4,42.1,7.2,41.5c0,9.7-4.5,18.5-8.9,31.6c-4.3,13-18.5,44.1-18.5,44.1s0.7,2.3,2.3,5.5
					c2.8,5.6,8.3,14.2,17.5,19.3c1,0.6,2.2,1.2,3.6,1.8l-4.1,12.7l0,0l-0.9,2.8c0.4,12.1,24.5,9.8,24.5,9.8l3.2-15.4l0.5-2.2
					c1.3,0.3,2.6,0.6,3.9,0.9l1.6,18c5.9,7.5,21.4,2.9,21.4,2.9s0.4-9.9,0.9-18.3c4.5-0.1,8.8-0.5,12.8-1.4c0,0-2.2-73.4-7.1-103.6
					c-0.1-0.7-0.2-1.4-0.3-2c1.4,5.4,8.7,7.2,11.6,6.2c6.5-2.2,8.8-7.3,9.1-12.7C183,143.4,178.8,134.4,178.3,134.2z"/>
				<path class="st2" d="M130.5,105.1c0,0-0.2,1.4-1,1.7c-0.9,0.3-3.1,1-3.4,0.8c-0.2-0.1-1.1-1.2-1.1-1.2S128.6,105,130.5,105.1z"
					/>
				<path class="st0" d="M96.6,79.5c0,0,1.4-1,0.7-3.6c-0.5-1.8-0.2-3.2-0.5-3.2c-0.4,0-0.7,2.4-0.9,2.9c-0.2,0.5-3.2-5.2-4-4.8
					c-0.8,0.4-2.3,2.7,1.3,10.5L96.6,79.5z"/>
				<path class="st0" d="M197.7,120.9c0,0,2.1-4.9,2.8-5.9c1.4-2,5.2-3.2,5.5-2.4c0.2,0.9-2.5,2.2-2.6,4.2c0,0.6,1.1-0.5,1.8-1
					c0.4-0.3,0.7,0,0.5,0.3c-1.1,1.7-1.8,3.4-2.9,4c-1.1,0.6-2.8,2.7-2.8,2.7L197.7,120.9z"/>
				<polygon class="st2" points="144.1,112.7 141.7,136.9 130.5,115.5 126.4,115.5 142.9,145.6 147.1,112.6 				"/>
				<path class="st1" d="M122,87.7c0,0-3.9,4.6,8.5,6.9c4,0.7,6,4.6,4.9,7.9c-1.6,4.8,2.5,10,8.5,8.2c4.8-1.5-3-23.8-7.2-24.2
					C132.4,86.2,122,87.7,122,87.7z"/>
				<path class="st1" d="M126.4,88.8c0,0-4,2.9-4.3,5.2c-0.3,2.3-1.3,5.6-2.8,3.3c-1.5-2.3-1.8-5.5,0-7.6c1.8-2.1,5.8-3.1,6.6-2.3
					C126.7,88,126.4,88.8,126.4,88.8z"/>
				<path class="st1" d="M119.3,87.5c0,0,7.6-6.6,23.8,3.1l0.2-4c-0.6-2.4-1.4-2.4-3.5-3.5c-2.4-1.3-6.2-2.6-11.6-2.5
					c-3.7,0-5.9-0.4-7.5,2.8L119.3,87.5z"/>
				<g>
					<path class="st1" d="M220.3,133.3c0,0,1.4-1.6,2.7-3.4c0.6-0.8,1.1-1.7,1.5-2.5c0.2-0.5,0.3-0.9,0.4-1.3
						c0,0-20.2-12.3-22.1-13.9c-1.8-1.6-18.4-14.6-18.4-14.6s-1.1,1.1-2.3,2.6c-0.5,0.6-0.9,1.2-1.4,1.9c-0.8,1.3-1.5,2.7-1.7,4.1
						c0,0,21.2,10.5,23.1,12.4C203.9,120.6,220.3,133.3,220.3,133.3z"/>
					<path class="st1" d="M223,130c0.6-0.8,1.1-1.7,1.5-2.5c0.2-0.5,0.3-0.9,0.4-1.3c0,0-20.2-12.3-22.1-13.9
						c-1.8-1.6-18.4-14.6-18.4-14.6s-1.1,1.1-2.3,2.6c-0.5,0.6-0.9,1.2-1.4,1.9c6,3,22.1,11.1,23.8,12.9
						C206.2,116.9,218.1,126.2,223,130z"/>
					<path class="st1" d="M199.5,109.6c0,0,5.6,2.6,7.1,5.3l-3.2,5.1c0,0-5.2-2.4-7.4-4.8L199.5,109.6z"/>
				</g>
				<path class="st0" d="M202.8,120.1c0,0,1.4-0.6,2.3-1.6c0.9-1.1,2-2.8,0.6-2.3c-1.4,0.4-4,2.2-4.9,2.4c-1,0.2-0.6,0.9-0.7,1.1
					C200,119.9,202.8,120.1,202.8,120.1z"/>
				<path class="st1" d="M81.9,227.4c0,0,0.7,2.3,2.3,5.5c6.1-6.4,14.6-16.7,20.5-29.1c10.2-21.3,4.5-52.1,4.5-52.1
					c0,9.7-4.5,18.5-8.9,31.6C96.1,196.3,81.9,227.4,81.9,227.4z"/>
				<path class="st2" d="M145.3,154.3c0-0.8-0.6-1.4-1.4-1.4c-0.8,0-1.4,0.6-1.4,1.4s0.6,1.4,1.4,1.4
					C144.6,155.7,145.3,155.1,145.3,154.3z"/>
				<path class="st2" d="M147.3,172.8c0-0.8-0.6-1.4-1.4-1.4c-0.8,0-1.4,0.6-1.4,1.4c0,0.8,0.6,1.4,1.4,1.4
					C146.6,174.2,147.3,173.6,147.3,172.8z"/>
			</g>
			<g>
				<path class="st1" d="M375.8,61c0,0-3,2.2-6.4,2.1c-2.6-0.1-5.2-2.4-5.3-2.5l-1.9,3.6c0,0,4.8,2.6,8.7,1.6c1.2-0.3,3.1-1.6,4-2.5
					C375.9,62.2,375.8,61,375.8,61z"/>
				<path class="st0" d="M375.4,53.7l5-2.3c0,0-0.2,10.6-8.8,14.3C371.6,65.6,376.8,58.1,375.4,53.7z"/>
			</g>
			<g>
				<path class="st1" d="M47.7,157.7c0,0-3,2.2-6.4,2.1c-2.6-0.1-5.2-2.4-5.3-2.5l-1.9,3.6c0,0,4.8,2.6,8.7,1.6
					c1.2-0.3,3.1-1.6,4-2.5C47.8,158.9,47.7,157.7,47.7,157.7z"/>
				<path class="st0" d="M47.3,150.3l5-2.3c0,0-0.2,10.6-8.8,14.3C43.5,162.2,48.7,154.7,47.3,150.3z"/>
			</g>
			<g>
				<path class="st0" d="M278.2,5.6c0,0,7.3-5,12.7,2.5l6-2.6c0,0-3-4.7-14.6-2.6C274.7,4.3,278.2,5.6,278.2,5.6z"/>
				<path class="st4" d="M271,10.6c0,0,2-8.2,16.9-8.2c0,0-5.6,0.5-9.9,7.8L271,10.6z"/>
			</g>
			<path class="st0" d="M200.2,24.7c0,0-4-2.5-4.4-5.6c0,0-3.9,0.2-4.7,1.5c0,0,1.8,5.1,3.9,6C195,26.6,199.7,26.9,200.2,24.7z"/>
			<path class="st0" d="M466.1,238.1c0,0-4-2.5-4.4-5.6c0,0-3.9,0.2-4.7,1.5c0,0,1.8,5.1,3.9,6C460.8,240,465.6,240.3,466.1,238.1z"
				/>
			<path class="st0" d="M13.3,231c0,0-4-2.5-4.4-5.6c0,0-3.9,0.2-4.7,1.5c0,0,1.8,5.1,3.9,6C8,232.9,12.8,233.2,13.3,231z"/>
		</g>
	</g>
</g>
</svg>
