<?xml version="1.0" encoding="utf-8"?>
<!-- Generator: Adobe Illustrator 26.2.1, SVG Export Plug-In . SVG Version: 6.00 Build 0)  -->
<svg version="1.1" id="Layer_1" xmlns="http://www.w3.org/2000/svg" xmlns:xlink="http://www.w3.org/1999/xlink" x="0px" y="0px"
	 viewBox="0 0 231.8 199.7" style="enable-background:new 0 0 231.8 199.7;" xml:space="preserve">
<style type="text/css">
	.st0{fill:#010101;}
	.st1{fill:#FFFFFF;}
	.st2{fill:#FFC640;}
</style>
<g>
	<path class="st0" d="M39.9,189.3c0-4.4,38.1-8,80-8c42,0,71.9,3.6,71.9,8c0,4.4-30,8-71.9,8C78,197.3,39.9,193.7,39.9,189.3z"/>
	<path class="st1" d="M30.6,6C15.9,24.5,7.1,48,7.1,73.6C7.1,133.7,55.8,180,115.9,180c60.1,0,108.8-46.4,108.8-106.5
		c0-25.6-8.8-49-23.6-67.6H30.6z"/>
	<g>
		<path class="st0" d="M115.9,185.4c60.1,0,108.8-49,108.8-110.9c0-4.5-0.3-8.8-0.7-13.2H7.8c-0.5,4.3-0.7,8.7-0.7,13.2
			C7.1,136.4,55.8,185.4,115.9,185.4z"/>
	</g>
	<g>
		<path class="st2" d="M158.9,71.7c-3.4-0.4-6.8-0.7-10.2-0.9c-3.7-4.6-27.9-34.4-39.4-27.9C99,48.8,85.9,76.7,81.8,85.7
			c-6.3,3-12.1,6.2-17.2,9.3c0,0,0,0,0,0c-6.7,2.2-12.8,3.4-17.9,3C34.3,67.2,7.1,66.9,7.1,66.9S2.7,88.2,20,109.7
			c2.2,2.7,5.6,6.1,9.6,9.1c-5.2,9.1-5.8,10.5-3.7,15.9c2.7,7,15,20.2,21.6,23.7c-0.7-2.9-1-11,0.7-14.8c0.9-2.2,3.5-4.9,4.9-9.1
			c3.2-1.7,6.1-3.2,12.7-1.2c0,0,0,0,0,0c4.1,2.5,8.7,5.1,13.6,7.5c-5.4,1.5-12.4,4.2-13.4,8.9c-1.6,7.8,5.7,13.4,8.9,13.5
			c3.2,0.1,12.5-11.9,16.1-17.4c8.8,3.4,18.4,6.1,28.6,7.5c-5.5,8.8-10.9,20.5-6.3,27.4c7,10.5,24.4,5.7,29,1.7
			c3.5-3,4.2-15.3,2.9-28.6c5.8-0.6,13-1.1,20.1-3.7c22.4-8.4,23-19,38.4-24c13.4-4.3,18.5-16.2,18.2-23
			C216,88.6,183.1,73.5,158.9,71.7z"/>
		<g>
			<path class="st1" d="M195.6,95.7c-2.1-7.4-9.4-11.7-16.4-9.7c-6.9,2-10.9,9.6-8.8,16.9c2.1,7.3,9.4,11.7,16.4,9.7
				C193.8,110.6,197.7,103.1,195.6,95.7z"/>
			<path class="st0" d="M193.1,96.4c-1.5-5.1-6.6-8.1-11.4-6.8c-4.8,1.4-7.6,6.7-6.1,11.8c1.5,5.1,6.6,8.2,11.4,6.8
				C191.9,106.8,194.6,101.5,193.1,96.4z"/>
			<path class="st1" d="M184.7,94.3c0.2,1.9-1.8,1.2-2.9,2.9c-1.1,1.7-3.5,0.7-3.7-1.2c-0.1-1.9,1.2-3.8,3-4.3
				C182.9,91.2,184.5,92.4,184.7,94.3z"/>
		</g>
		<path class="st1" d="M70.4,98.2c0,0,33.8-22.1,69.6-22.6c7.6-0.1,2.9,3.3,1.1,4.2c-1.9,0.9-19.9,1.9-36.3,7.5
			C88.4,92.9,66.9,106.4,70.4,98.2z"/>
	</g>
	<path class="st1" d="M33.5,28.8c1.5-2.2,8.1-6.3,9.9,1.5c1.6,7.1-11,25.8-8.7,56.2c3.3,43.9,23.7,61.2,23.7,61.2
		s-32.6-28.2-36-64.8C19.8,55,27.2,37.8,33.5,28.8z"/>
	<g>
		<path class="st1" d="M209.4,70.9c0,2.9-2.3,5.2-5.2,5.2c-2.9,0-5.2-2.3-5.2-5.2c0-2.9,2.3-5.2,5.2-5.2
			C207,65.7,209.4,68,209.4,70.9z"/>
		<path class="st1" d="M217,75.1c0,1.3-1.1,2.4-2.4,2.4c-1.3,0-2.4-1.1-2.4-2.4c0-1.3,1.1-2.4,2.4-2.4C215.9,72.6,217,73.7,217,75.1
			z"/>
		<path class="st1" d="M211.8,83c0,2.1-1.7,3.8-3.8,3.8c-2.1,0-3.8-1.7-3.8-3.8c0-2.1,1.7-3.8,3.8-3.8
			C210.1,79.2,211.8,80.9,211.8,83z"/>
	</g>
	<path class="st1" d="M204.6,2.4H27.2C11.8,21.7,2.7,46.2,2.7,72.7c0,62.5,50.7,115.5,113.2,115.5c62.5,0,113.2-52.9,113.2-115.5
		C229.1,46.2,219.9,21.7,204.6,2.4z M115.9,182.4C55.8,182.4,7.1,133.7,7.1,73.6c0-25.6,8.8-49,23.6-67.6h170.5
		c14.7,18.6,23.6,42.1,23.6,67.6C224.7,133.7,176,182.4,115.9,182.4z"/>
</g>
</svg>
