<?xml version="1.0" encoding="utf-8"?>
<!-- Generator: Adobe Illustrator 26.2.1, SVG Export Plug-In . SVG Version: 6.00 Build 0)  -->
<svg version="1.1" id="Layer_1" xmlns="http://www.w3.org/2000/svg" xmlns:xlink="http://www.w3.org/1999/xlink" x="0px" y="0px"
	 viewBox="0 0 449.5 386.8" style="enable-background:new 0 0 449.5 386.8;" xml:space="preserve">
<style type="text/css">
	.st0{fill:none;}
	.st1{fill:#FFFFFF;}
	.st2{fill:#010101;}
</style>
<g>
	<path class="st0" d="M132.1,124.1c0.1,0.1,0.3,0.2,0.4,0.3C132.4,124.3,132.3,124.2,132.1,124.1z"/>
	<path class="st0" d="M132.9,124.6c0.2,0.1,0.3,0.2,0.5,0.3C133.2,124.8,133,124.7,132.9,124.6z"/>
	<path class="st0" d="M133.6,125.1c0.2,0.2,0.5,0.4,0.7,0.6C134.1,125.4,133.9,125.3,133.6,125.1z"/>
	<path class="st0" d="M120.2,122.4c0.4,0,0.8-0.1,1.2-0.1C121,122.3,120.6,122.3,120.2,122.4z"/>
	<path class="st0" d="M72,230.5c-0.9-0.3-1.5-0.8-1.4-1.3l0.3-1c-1.4-0.1-2.7,0.3-3.9,1c-1.7,1-3,2.6-3.5,4.5
		c-1.1,3.9,1.2,8,5.2,9.1c2.3,0.6,4.6,0.2,6.5-1.3l0.1-0.1c1.5-1,2.5-2.5,2.8-4.3c0.3-1.6,0-3.2-0.7-4.6l-0.1-0.1
		c-0.7-1.4-1.8-2.6-3.2-3.3l-0.3,1.2C73.7,230.7,72.9,230.8,72,230.5z"/>
	<path class="st0" d="M131.4,123.7c0.1,0.1,0.3,0.1,0.4,0.2C131.7,123.9,131.5,123.8,131.4,123.7z"/>
	<path class="st0" d="M118.7,122.5c0.4,0,0.8-0.1,1.2-0.1C119.5,122.5,119.1,122.5,118.7,122.5z"/>
	<path class="st0" d="M121.7,122.3c0.1,0,0.3,0,0.4,0C122,122.2,121.8,122.2,121.7,122.3z"/>
	<path class="st0" d="M123.3,122.2c0.2,0,0.3,0,0.5,0C123.6,122.2,123.4,122.2,123.3,122.2z"/>
	<path class="st0" d="M133.7,156.6c-0.4,0.2-0.9,0.5-1.4,0.7C132.9,157.1,133.3,156.9,133.7,156.6z"/>
	<path class="st0" d="M120.7,160c-0.7,0.1-1.4,0.1-2,0.2C119.4,160.1,120.1,160.1,120.7,160z"/>
	<path class="st0" d="M135.9,155.1c-0.3,0.3-0.6,0.6-1,0.8C135.3,155.6,135.6,155.4,135.9,155.1z"/>
	<path class="st0" d="M122.5,122.2c0.1,0,0.3,0,0.4,0C122.8,122.2,122.6,122.2,122.5,122.2z"/>
	<path class="st0" d="M124.1,122.2c0.2,0,0.3,0,0.5,0C124.4,122.2,124.2,122.2,124.1,122.2z"/>
	<path class="st0" d="M140.1,144.1c-0.1,0.7-0.2,1.4-0.4,2.2C139.9,145.6,140,144.9,140.1,144.1z"/>
	<path class="st0" d="M128.3,122.6c0.2,0,0.3,0.1,0.5,0.1C128.6,122.7,128.5,122.7,128.3,122.6z"/>
	<path class="st0" d="M129.1,122.8c0.1,0,0.3,0.1,0.4,0.1C129.4,122.9,129.3,122.9,129.1,122.8z"/>
	<path class="st0" d="M120.7,160c4.4-0.5,8.5-1.3,11.6-2.7c-1.7,0.7-3.6,1.3-5.8,1.8C124.7,159.5,122.8,159.8,120.7,160z"/>
	<path class="st0" d="M29.3,102.3L29.3,102.3c0,0-0.1,0-0.1,0C29.2,102.3,29.3,102.3,29.3,102.3z"/>
	<path class="st0" d="M113,160.5c1.9-0.1,3.8-0.2,5.7-0.4C116.8,160.4,114.8,160.5,113,160.5C113,160.5,113,160.5,113,160.5z"/>
	<path class="st0" d="M100.6,145.2c-0.4,0.3-0.7,0.4-1,0.2c0,0,0,0,0,0c0,0,0,0,0,0c-1.1,1.6-3.6,4.2-7.8,2.7
		c-1.4-0.4-2.7-1.3-3.6-2.2c-0.4-0.3-0.7-0.7-1-1c0,0,0,0,0,0c0,0,0,0,0,0c0,0.2-0.1,0.3-0.1,0.4c-1.9-1.9-3-4.6-4-10.9
		c-2.9,1.5-5.6,3.8-8.1,6.8c-0.3,0.4-0.7,0.8-1,1.2c0,0,0,0,0,0c-0.3,0.4-0.6,0.8-1,1.2c0,0,0,0,0,0c-0.3,0.4-0.6,0.9-0.9,1.3
		c0,0,0,0,0,0c-0.3,0.4-0.6,0.9-0.9,1.3c0,0,0,0,0,0.1c-0.3,0.4-0.6,0.9-0.8,1.4c0,0,0,0.1-0.1,0.1c-0.3,0.4-0.5,0.9-0.8,1.4
		c0,0.1-0.1,0.1-0.1,0.2c-0.2,0.4-0.5,0.9-0.7,1.4c0,0.1-0.1,0.2-0.1,0.2c-0.2,0.4-0.4,0.9-0.6,1.3c0,0.1-0.1,0.2-0.1,0.3
		c-0.2,0.4-0.4,0.9-0.6,1.3c-0.1,0.1-0.1,0.3-0.2,0.4c-0.2,0.4-0.3,0.8-0.5,1.3c-0.1,0.2-0.1,0.3-0.2,0.5c-0.2,0.4-0.3,0.8-0.4,1.2
		c-0.1,0.2-0.1,0.4-0.2,0.6c-0.1,0.4-0.3,0.8-0.4,1.1c-0.1,0.3-0.2,0.5-0.2,0.8c-0.1,0.3-0.2,0.7-0.3,1c-0.1,0.3-0.2,0.6-0.3,0.9
		c-0.1,0.3-0.2,0.6-0.3,0.9c-0.1,0.4-0.2,0.8-0.3,1.2c-0.1,0.2-0.1,0.5-0.2,0.7c-0.1,0.6-0.3,1.3-0.4,1.9c-0.8,4-1.1,7.9-1.2,11.6
		c0,5,0.5,9.7,1.7,13.8c0.4,1.6,0.9,3,1.5,4.4c0.4,0.9,0.8,1.8,1.2,2.7c0.4,0.9,0.9,1.7,1.4,2.4c0.5,0.8,1,1.5,1.6,2.2
		c0.6,0.7,1.2,1.3,1.8,1.9c0.9,0.9,1.9,1.6,2.9,2.2c0.5,0.3,1.1,0.6,1.7,0.8l0.7-2.5c0.1-0.4,0.9-0.5,1.8-0.3s1.5,0.8,1.4,1.3
		l-0.6,2.4c0.6,0.1,1.3,0.2,1.9,0.2c0.8,0,1.6,0,2.4-0.1c0.4-0.1,0.8-0.1,1.2-0.2c2.5-0.6,5-1.7,7.4-3.5l-1.9-2.3
		c-0.3-0.3,0.1-1.1,0.8-1.6c0.7-0.6,1.6-0.7,1.8-0.4l1.8,2.2c5.2-4.7,9.6-12,12.4-20.7c0.4-1.2,0.8-2.5,1.1-3.7s0.6-2.6,0.9-3.9
		c0.1-0.6,0.2-1.3,0.3-1.9c0-0.2,0.1-0.4,0.1-0.6c0.1-0.4,0.1-0.9,0.2-1.3c0-0.3,0.1-0.5,0.1-0.8c0-0.4,0.1-0.7,0.1-1.1
		c0-0.3,0.1-0.6,0.1-0.8c0-0.3,0.1-0.7,0.1-1c0-0.3,0-0.6,0.1-0.9c0-0.3,0-0.7,0.1-1c0-0.3,0-0.6,0-0.9c0-0.3,0-0.6,0-1
		c0-0.3,0-0.6,0-0.9c0-0.3,0-0.6,0-0.9c0-0.3,0-0.6,0-0.9c0-0.3,0-0.6,0-0.9c0,0,0,0,0-0.1C105.2,156.1,101.7,147.9,100.6,145.2z"/>
	<path class="st0" d="M78.2,213.6l-0.5,1.9l15.1,4.2l4.7-7.6l-3.1-3.7C89.3,212.6,83.7,214.6,78.2,213.6z"/>
	<path class="st0" d="M114.6,110.3c0,1.3,0.1,2.6,0,3.9c8.5-2.4,17.1-4.7,25.8-6.7c-15.7-16.2-13.3-14.9-25-18.5c-0.2,1-0.4,2-0.6,3
		C113.8,98,114.4,104.1,114.6,110.3z"/>
	<path class="st0" d="M129.9,123.1c0.1,0.1,0.3,0.1,0.4,0.2C130.2,123.2,130,123.1,129.9,123.1z"/>
	<path class="st0" d="M115.8,122.9c0.1,0,0.1,0,0.2,0C115.9,122.9,115.8,122.9,115.8,122.9z"/>
	<path class="st0" d="M117.2,122.7c0.4-0.1,0.9-0.1,1.3-0.2C118.1,122.6,117.7,122.7,117.2,122.7z"/>
	<path class="st0" d="M114.3,123c0.1,0,0.1,0,0.2,0C114.4,123,114.4,123,114.3,123z"/>
	<path class="st0" d="M130.6,123.4c0.1,0.1,0.3,0.1,0.4,0.2C130.9,123.5,130.8,123.4,130.6,123.4z"/>
	<path class="st0" d="M112.8,123.2c0.1,0,0.1,0,0.2,0C112.9,123.2,112.9,123.2,112.8,123.2z"/>
	<path class="st0" d="M127.5,122.5c0.2,0,0.3,0.1,0.5,0.1C127.8,122.5,127.7,122.5,127.5,122.5z"/>
	<path class="st0" d="M99.5,222.8c1.4,3.4,5.3,5.1,8.7,3.7c3.4-1.4,5.1-5.3,3.7-8.7c-1.4-3.4-5.2-5.1-8.6-3.8l5,5.9
		c0.3,0.3-0.1,1.1-0.8,1.6c-0.7,0.6-1.6,0.7-1.8,0.4l-5.1-6.1C99.1,217.8,98.6,220.4,99.5,222.8z"/>
	<path class="st0" d="M124.9,122.2c0.2,0,0.4,0,0.5,0C125.2,122.2,125.1,122.2,124.9,122.2z"/>
	<path class="st0" d="M125.7,122.2c0.3,0,0.5,0,0.8,0.1C126.2,122.3,125.9,122.2,125.7,122.2z"/>
	
		<rect x="128.1" y="261.4" transform="matrix(0.9284 -0.3716 0.3716 0.9284 -89.7573 68.9354)" class="st0" width="11.9" height="11.9"/>
	<path class="st0" d="M126.6,122.3c0.2,0,0.4,0.1,0.6,0.1C127,122.4,126.8,122.3,126.6,122.3z"/>
	
		<rect x="136.5" y="241.8" transform="matrix(0.9284 -0.3716 0.3716 0.9284 -81.8621 70.6529)" class="st0" width="11.9" height="11.9"/>
	
		<rect x="142.1" y="255.8" transform="matrix(0.9284 -0.3716 0.3716 0.9284 -86.6694 73.7418)" class="st0" width="11.9" height="11.9"/>
	
		<rect x="122.5" y="247.4" transform="matrix(0.9284 -0.3716 0.3716 0.9284 -84.9509 65.8475)" class="st0" width="11.9" height="11.9"/>
	<g>
		<path class="st1" d="M72,255.5c-0.6,0.2-1.1-0.4-0.8-0.9l21.6-34.9l-15.1-4.2l-3.6,13.6c1.4,0.7,2.5,1.9,3.2,3.3l0.1,0.1
			c0.8,1.4,1,3,0.7,4.6c-0.3,1.7-1.3,3.3-2.8,4.3l-0.1,0.1c-1.9,1.5-4.3,1.9-6.5,1.3c-3.9-1.1-6.3-5.2-5.2-9.1
			c0.5-1.9,1.8-3.5,3.5-4.5c1.2-0.7,2.6-1,3.9-1l3.6-13.6l-19.8-5.5c-9.9-2.8-20.2,3.1-23,13l-9.3,33.4c-2.8,9.9,3.1,20.2,13,23
			l8,2.2l-4.6,16.7l5.8,12.1l-6.1,6.4c-0.2,0.2-0.2,0.5-0.1,0.7c0.4,1,1.5,3.6,1,5.6c-0.5,2.1-4.5,5-5.8,6c-0.2,0.2-0.3,0.5-0.2,0.8
			c0.3,0.8,0.8,2.4,0.2,4.5c-0.4,1.4-2.7,2.3-4.3,2.8c-0.5,0.2-0.6,0.8-0.2,1.1c1.6,1.2,4.3,3.5,3.4,6.3c-0.9,2.8-3.9,5.1-5.2,6
			c-0.3,0.2-0.4,0.6-0.2,0.9c0.9,1.3,3.1,4.8,2,8.3c-0.8,2.6-4.7,4.8-6.2,5.6c-0.3,0.2-0.5,0.6-0.3,0.9l7,12.4l0.2,0.4
			c0.2,0.3,0.5,0.5,0.9,0.5c-0.1-0.1-0.1-0.2-0.2-0.3l-0.1-0.4l26-93.6l0.7-2.6l1.8,0.5l-0.7,2.6l-25.6,92.2l-1.4,1.4l2.2-1.2
			l10-5.3c0.4-0.2,0.6-0.5,0.8-0.9l20.9-75.5l5.8,1.6l2.3-8.2l5.2,1.5c0.5,0.1,1,0.2,1.5,0.3c4.3,0.8,8.8,0.1,12.7-2.1
			c0.3-0.2,0.5-0.3,0.8-0.5l-14.3-35.6L72,255.5z"/>
		<polygon class="st1" points="346,85.1 345.4,87.7 323.4,183.8 322.4,188.1 337.7,191.6 338.7,187.2 350,138 360.9,90.2 
			361.3,88.6 		"/>
	</g>
	<g>
		<path class="st2" d="M326.5,82.6c-25.8-9.2-34.4-16.5-63-36.3C239.3,29.5,219,10.9,206.8,6.9c-22.3-7.5-99.8,6.2-99.8,6.2l0,0
			c-3,5.6-6.3,11-9.6,16.3c-1.6,2.7-3.4,5.3-4.9,8c-1.6,2.7-3,5.4-4,8.3c-1.1,2.9-2,5.9-2.9,8.9c-0.9,3-1.8,6-2.7,9
			c-1.8,6-3.8,12-6,17.9c1.2-6.2,2.6-12.3,4.1-18.5c1.5-6.1,2.9-12.2,5.1-18.3c1.1-3,2.7-5.9,4.4-8.6c1.7-2.7,3.5-5.3,5.3-7.9
			c3.7-5.1,7.4-10.2,11.3-15.2L91,14.3c-2.4,0.2-4.7,1.2-6.5,3l-19.9,20c-1.4,3-11.5,17.6-13.1,20.5c-1.7,2.9-3.3,5.8-5,8.6L44,70.6
			l-2.5,4.2c-0.9,2.3-1.8,4.5-2.8,6.8c-0.9,2.3-1.9,4.6-2.9,6.9c-1,2.3-2,4.5-3,6.8c-0.1,0.2-0.2,0.4-0.3,0.7
			c3.5,2.3,4.4,6.2,3.1,10.2l-2.6,7.8c-1.4,4.4-4.9,5.6-9.8,6.9c0.1,4.2,1.6,8.2,5.8,11c3.9,2.6,17.1,0.6,24-8.1
			c17.1-21.8,15.3-33.1,23.8-42.2c1.7,12,2.9,21.7,3.8,29.4c0,0,0.2,2.6,0.5,6.3c3.1,0.1,8.5,1.5,8.9,10.7c0.1,1.3,0,2.7-0.1,4.2
			c-0.3,3.4-1.2,7.5-2.7,12.5c0,0,0,0,0,0c0,0,0,0,0,0c0.3,0.3,0.6,0.7,1,1c1,0.9,2.2,1.8,3.6,2.2c4.2,1.6,6.7-1.1,7.8-2.7
			c0,0,0,0,0,0c0.2-0.3,0.4-0.6,0.7-1c1.1-1.7,2.3-3.5,3.3-5.3c0,0,0,0,0,0c0.7-1.2,1.3-2.3,1.9-3.5c0,0,0,0,0,0
			c1.3-2.5,2.5-5.1,3.4-7.5c0.5-1.3,1-2.6,1.4-4c0.1-0.3,0.2-0.6,0.3-0.8c0,0,0,0,0,0c0.4-1.3,0.8-2.6,1.2-3.9
			c0.3-1.2,0.6-2.5,0.7-3.6c0-0.2,0-0.5,0-0.7c0-1.5,0-3-0.1-4.6c-0.2-2.5-0.4-5-0.5-7.6c-0.2-3.7-0.2-7.4,0.4-11.2
			c0.5-3.2,1.4-6.3,2.6-9.2c1.2-3,2.9-5.7,4.8-8.2l0,0l0-0.1c2.2-2.4,3.9-5.8,6.8-8.3c1.4-1.3,3.1-2.3,4.9-2.8
			c1.8-0.6,3.8-0.6,5.5-0.6c3.5-0.1,7.1-0.1,10.6-0.2c3.5,0,7.1-0.1,10.6,0c-3.5,0.4-7.1,0.6-10.6,0.9c-3.5,0.3-7.1,0.6-10.6,0.8
			c-1.8,0.1-3.5,0.2-5,0.8c-1.6,0.5-2.9,1.4-4.1,2.6c-1.2,1.1-2.2,2.5-3.2,3.9c-1,1.4-1.9,3-3.2,4.4l0.1-0.1c-1.7,2.5-3.3,5-4.4,7.8
			c-0.8,1.8-1.3,3.7-1.8,5.7c11.7,3.6,9.4,2.3,25,18.5c1.1-0.3,2.1-0.5,3.2-0.8l3.8-0.9c1.3-0.3,2.6-0.5,3.8-0.8l3.9-0.8l3.9-0.6
			c5.2-0.8,10.4-1.3,15.6-1.6c5.2-0.3,10.5-0.2,15.6-0.4c5.1-0.2,10.3-0.8,15.3-1.8c10.2-1.9,20.1-5.2,30-8.4c-2.4,1-4.8,2-7.2,2.9
			c-2.4,1-4.9,1.8-7.3,2.7c-2.4,0.9-5,1.6-7.4,2.4c-1.3,0.4-2.5,0.7-3.8,1c-1.3,0.3-2.5,0.7-3.8,1c-5.1,1.2-10.3,2-15.6,2.3
			c-5.2,0.3-10.4,0.4-15.6,0.7c-5.2,0.3-10.3,0.8-15.4,1.6l-3.8,0.6l-3.8,0.7c-1.3,0.2-2.5,0.5-3.8,0.7l-3.8,0.8
			c-5.1,1.1-10.1,2.3-15.2,3.5c-4.8,1.2-9.6,2.3-14.5,3.5c0,0.1,0,0.1,0,0.2c-0.1,0.4-0.2,0.8-0.3,1.2c-0.2,0.8-0.4,1.5-0.6,2.3
			c-0.3,1.1-0.7,2.2-1.1,3.4c0.1,0,0.2,0,0.3,0c0.1,0,0.1,0,0.2,0c0.4,0,0.8-0.1,1.3-0.1c0.1,0,0.1,0,0.2,0c0.4,0,0.8-0.1,1.3-0.1
			c0.1,0,0.1,0,0.2,0c0.4,0,0.9-0.1,1.3-0.2c0.4-0.1,0.9-0.1,1.3-0.2c0.1,0,0.1,0,0.2,0c0.4,0,0.8-0.1,1.2-0.1c0.1,0,0.1,0,0.2,0
			c0.4,0,0.8-0.1,1.2-0.1c0,0,0.1,0,0.1,0c0.1,0,0.1,0,0.2,0c0.1,0,0.3,0,0.4,0c0.1,0,0.3,0,0.4,0c0.1,0,0.3,0,0.4,0
			c0.1,0,0.2,0,0.4,0c0.2,0,0.3,0,0.5,0c0.1,0,0.2,0,0.3,0c0.2,0,0.3,0,0.5,0c0.1,0,0.2,0,0.3,0c0.2,0,0.4,0,0.5,0
			c0.1,0,0.2,0,0.3,0c0.3,0,0.5,0,0.8,0.1c0.1,0,0.1,0,0.2,0c0.2,0,0.4,0.1,0.6,0.1c0.1,0,0.2,0,0.3,0.1c0.2,0,0.3,0.1,0.5,0.1
			c0.1,0,0.2,0,0.3,0.1c0.2,0,0.3,0.1,0.5,0.1c0.1,0,0.2,0.1,0.3,0.1c0.1,0,0.3,0.1,0.4,0.1c0.1,0,0.2,0.1,0.3,0.1
			c0.1,0.1,0.3,0.1,0.4,0.2c0.1,0,0.2,0.1,0.3,0.1c0.1,0.1,0.3,0.1,0.4,0.2c0.1,0,0.2,0.1,0.3,0.2c0.1,0.1,0.3,0.1,0.4,0.2
			c0.1,0.1,0.2,0.1,0.3,0.2c0.1,0.1,0.3,0.2,0.4,0.3c0.1,0.1,0.2,0.1,0.3,0.2c0.2,0.1,0.3,0.2,0.5,0.3c0.1,0.1,0.2,0.1,0.2,0.2
			c0.2,0.2,0.5,0.4,0.7,0.6c0.9,0.8,1.7,1.6,2.4,2.6c3.1,4.2,4.2,10.1,3.4,15.9c-0.1,0.7-0.2,1.4-0.4,2.2c-0.1,0.6-0.3,1.3-0.5,1.9
			c-0.4,1.3-0.8,2.5-1.4,3.7c-0.3,0.6-0.6,1.2-0.9,1.8c-0.2,0.3-0.4,0.7-0.7,1c-0.1,0.2-0.3,0.3-0.4,0.4c-0.3,0.3-0.6,0.6-1,0.8
			c-0.4,0.3-0.8,0.5-1.2,0.7s-0.9,0.5-1.4,0.7c-3.1,1.4-7.3,2.2-11.6,2.7c-0.7,0.1-1.4,0.1-2,0.2c-1.9,0.2-3.9,0.3-5.7,0.4
			c0,0,0,0,0,0c0,0,0,0,0,0c0-0.3,0-0.6,0-0.9c0-0.3,0-0.5,0-0.8c0-0.5-0.1-0.9-0.1-1.4c0-0.2,0-0.4,0-0.6c0-0.5-0.1-0.9-0.1-1.4
			c0-0.2,0-0.4-0.1-0.5c-0.1-0.5-0.1-1-0.2-1.5c0-0.1,0-0.3-0.1-0.4c-0.1-0.5-0.2-1-0.3-1.5c0-0.1,0-0.3-0.1-0.4
			c-0.1-0.5-0.2-1-0.3-1.5c0-0.1,0-0.2-0.1-0.3c-0.1-0.5-0.2-1-0.4-1.5c0-0.1,0-0.2-0.1-0.2c-0.1-0.5-0.3-1-0.5-1.5
			c0-0.1,0-0.1,0-0.2c-0.2-0.5-0.3-1.1-0.5-1.6c0,0,0-0.1,0-0.1c-0.2-0.5-0.4-1.1-0.6-1.6c0,0,0,0,0,0c-0.2-0.5-0.4-1-0.7-1.5
			c0,0,0,0,0,0c-0.8-1.7-1.7-3.2-2.6-4.7c-0.1,0.1-0.2,0.3-0.3,0.4c-0.5,0.7-1.1,1.8-1.7,3c0,0,0,0,0,0c1.3,1.9,2.4,4.1,3.3,6.5
			c0,0,0,0.1,0.1,0.1c0.1,0.4,0.3,0.8,0.4,1.2c0,0.1,0.1,0.2,0.1,0.3c0.1,0.4,0.2,0.7,0.3,1.1c0,0.1,0.1,0.3,0.1,0.4
			c0.1,0.3,0.2,0.7,0.3,1.1c0,0.2,0.1,0.3,0.1,0.5c0.1,0.3,0.2,0.7,0.2,1c0,0.2,0.1,0.4,0.1,0.6c0.1,0.3,0.1,0.7,0.2,1
			c0,0.2,0.1,0.4,0.1,0.6c0.1,0.3,0.1,0.6,0.2,1c0,0.2,0.1,0.5,0.1,0.7c0,0.3,0.1,0.6,0.1,1c0,0.3,0.1,0.5,0.1,0.8
			c0,0.3,0.1,0.6,0.1,0.9c0,0.3,0,0.5,0.1,0.8c0,0.3,0,0.6,0.1,0.9c0,0,0,0,0,0.1c0,0.3,0,0.6,0,0.9c0,0.3,0,0.6,0,0.9
			c0,0.3,0,0.6,0,0.9c0,0.3,0,0.6,0,0.9c0,0.3,0,0.6,0,1c0,0.3,0,0.6,0,0.9c0,0.3,0,0.7-0.1,1c0,0.3,0,0.6-0.1,0.9
			c0,0.3-0.1,0.7-0.1,1c0,0.3,0,0.6-0.1,0.8c0,0.4-0.1,0.7-0.1,1.1c0,0.3-0.1,0.5-0.1,0.8c-0.1,0.4-0.1,0.9-0.2,1.3
			c0,0.2-0.1,0.4-0.1,0.6c-0.1,0.6-0.2,1.3-0.3,1.9c-0.3,1.3-0.5,2.6-0.9,3.9s-0.7,2.5-1.1,3.7c-0.4,1.1-0.7,2.2-1.1,3.2
			c-2.8,7.3-6.8,13.4-11.3,17.5l-1.8-2.2c-0.3-0.3-1.1-0.1-1.8,0.4c-0.7,0.6-1.1,1.3-0.8,1.6l1.9,2.3c-2.4,1.7-4.9,2.9-7.4,3.5
			c-0.4,0.1-0.8,0.2-1.2,0.2c-0.8,0.1-1.6,0.2-2.4,0.1c-0.6,0-1.3-0.1-1.9-0.2L80,207c0.1-0.4-0.5-1-1.4-1.3s-1.7-0.2-1.8,0.3
			l-0.7,2.5c-0.3-0.1-0.6-0.2-0.9-0.4c-0.3-0.1-0.6-0.3-0.8-0.4c-1-0.6-2-1.3-2.9-2.2c-0.6-0.6-1.2-1.2-1.8-1.9
			c-0.6-0.7-1.1-1.4-1.6-2.2c-0.5-0.8-1-1.6-1.4-2.4c-0.4-0.9-0.9-1.7-1.2-2.7c-0.6-1.4-1.1-2.9-1.5-4.4c-0.7-2.6-1.2-5.4-1.5-8.4
			c-0.2-1.8-0.2-3.6-0.2-5.5c0-3.7,0.4-7.6,1.2-11.6c0.1-0.7,0.3-1.3,0.4-1.9c0.1-0.2,0.1-0.5,0.2-0.7c0.1-0.4,0.2-0.8,0.3-1.2
			c0.1-0.3,0.2-0.6,0.3-0.9c0.1-0.3,0.2-0.6,0.3-0.9c0.1-0.4,0.2-0.7,0.3-1c0.1-0.3,0.2-0.5,0.2-0.8c0.1-0.4,0.3-0.8,0.4-1.1
			c0.1-0.2,0.1-0.4,0.2-0.6c0.1-0.4,0.3-0.8,0.4-1.2c0.1-0.2,0.1-0.3,0.2-0.5c0.2-0.4,0.3-0.8,0.5-1.3c0.1-0.1,0.1-0.3,0.2-0.4
			c0.2-0.4,0.4-0.9,0.6-1.3c0-0.1,0.1-0.2,0.1-0.3c0.2-0.5,0.4-0.9,0.6-1.3c0-0.1,0.1-0.2,0.1-0.2c0.2-0.5,0.5-0.9,0.7-1.4
			c0-0.1,0.1-0.1,0.1-0.2c0.3-0.5,0.5-0.9,0.8-1.4c0,0,0-0.1,0.1-0.1c0.3-0.5,0.5-0.9,0.8-1.4c0,0,0,0,0-0.1
			c0.3-0.5,0.6-0.9,0.9-1.3c0,0,0,0,0,0c0.3-0.4,0.6-0.9,0.9-1.3c0,0,0,0,0,0c0.3-0.4,0.6-0.8,1-1.2c0,0,0,0,0,0
			c0.3-0.4,0.6-0.8,1-1.2c2.5-2.9,5.3-5.2,8.1-6.8c-0.2-1.2-0.4-2.5-0.6-3.9c-3.4,1.8-6.6,4.7-9.5,8.2c0,0,0,0,0,0
			c-0.1,0.1-0.2,0.2-0.2,0.3c-0.5,0.6-0.9,1.2-1.4,1.8c-0.2,0.2-0.3,0.4-0.5,0.6c-0.2,0.3-0.4,0.5-0.5,0.8c-0.2,0.2-0.3,0.5-0.5,0.7
			c-0.2,0.3-0.3,0.5-0.5,0.8c-0.2,0.2-0.3,0.5-0.5,0.8c-0.2,0.3-0.3,0.5-0.5,0.8c-0.2,0.3-0.3,0.5-0.5,0.8c-0.2,0.3-0.3,0.6-0.5,0.8
			c-0.1,0.3-0.3,0.6-0.4,0.8c-0.1,0.3-0.3,0.6-0.4,0.9c-0.1,0.3-0.3,0.6-0.4,0.9c-0.1,0.3-0.3,0.6-0.4,0.9c-0.1,0.3-0.3,0.6-0.4,0.9
			c-0.1,0.3-0.3,0.6-0.4,0.9c-0.1,0.3-0.3,0.6-0.4,1c-0.1,0.3-0.2,0.6-0.4,0.9c-0.1,0.3-0.3,0.7-0.4,1c-0.1,0.3-0.2,0.6-0.3,0.9
			c-0.1,0.4-0.2,0.7-0.4,1.1c-0.1,0.3-0.2,0.6-0.3,0.9c-0.1,0.4-0.2,0.7-0.3,1.1c-0.1,0.3-0.2,0.6-0.3,0.9c-0.1,0.4-0.2,0.8-0.3,1.2
			c-0.1,0.3-0.2,0.6-0.2,0.8c-0.1,0.5-0.2,0.9-0.3,1.4c-0.1,0.2-0.1,0.5-0.2,0.7c-0.2,0.7-0.3,1.4-0.4,2.1c0,0,0,0,0,0
			c-0.3,1.5-0.5,2.9-0.7,4.4c-0.3,2.2-0.5,4.3-0.5,6.4c0,0.7,0,1.4,0,2.1s0,1.4,0,2.1s0,1.4,0.1,2c0.1,2.7,0.5,5.3,0.9,7.7
			c0.1,0.6,0.2,1.2,0.4,1.8c1.1,4.9,2.9,9.3,5.3,12.7c2.4,3.5,5.3,6,8.7,7.4l-0.5,2l-3.6,13.6l-0.3,1c-0.1,0.4,0.5,1,1.4,1.3
			c0.9,0.3,1.7,0.2,1.8-0.3l0.3-1.2l3.6-13.6l0.5-1.9c5.5,1,11.1-1,16.2-5.2l3.1,3.7l-4.7,7.6l-21.6,34.9c-0.3,0.5,0.2,1.1,0.8,0.9
			l7.3-2.9l14.3,35.6l8.9,22.2l69.7-27.9L149,224.7l7.3-2.9c0.6-0.2,0.5-1-0.1-1.2l-55.1-14.4l-1.8,3l-2.5-3
			c0.1-0.1,0.3-0.3,0.4-0.4c0,0,0.1-0.1,0.1-0.1c3.1-3.2,5.9-7.2,8.3-11.9c0.3-0.6,0.6-1.3,0.9-1.9c0.5-1.1,1-2.2,1.5-3.4
			c0.6-1.6,1.2-3.3,1.8-5c0.2-0.8,0.5-1.6,0.7-2.4c0.3-1.1,0.6-2.2,0.8-3.3c0.1-0.6,0.3-1.3,0.4-1.9c0.3-1.5,0.5-2.9,0.7-4.4
			c0-0.1,0-0.1,0-0.2c0.1-0.7,0.2-1.3,0.2-2c0-0.2,0-0.4,0-0.6c0-0.5,0.1-1.1,0.1-1.6c0-0.3,0-0.6,0.1-0.9c0-0.4,0-0.8,0.1-1.2
			c0-0.4,0-0.7,0-1.1c0-0.3,0-0.7,0-1c0-0.3,0-0.6,0-0.9c8.8,3.6,47.7,1.4,47.7,1.4s26.6-7.4,46.6-4.1c20,3.2,53.8,25.5,65.3,25.4
			c29.6-0.2,41.7-1.5,50.7-0.9l22.1-96.2C338.8,86.3,332.2,84.7,326.5,82.6z M130.7,275.1l-4.4-11l11-4.4l4.4,11L130.7,275.1z
			 M155.7,265.1l-11,4.4l-4.4-11l11-4.4L155.7,265.1z M145.7,240l4.4,11l-11,4.4l-4.4-11L145.7,240z M131.7,245.7l4.4,11l-11,4.4
			l-4.4-11L131.7,245.7z M126.2,295.1l-17.9,7.1l-8.3-20.8l-7.9-19.6l15.6-6.2l2.3-0.9L126.2,295.1z M112,217.8
			c1.4,3.4-0.3,7.4-3.7,8.7c-3.4,1.4-7.4-0.3-8.7-3.7c-1-2.4-0.4-5,1.2-6.9l5.1,6.1c0.3,0.3,1.1,0.1,1.8-0.4
			c0.7-0.6,1.1-1.3,0.8-1.6l-5-5.9C106.8,212.8,110.7,214.4,112,217.8z"/>
		<path class="st2" d="M26.3,67.1L23.5,69c1.9,1.4,4.3,3.8,3.7,5.7c-0.9,3.4-8.4,8-12.9,8.5c-2.7,0.3-5.7-1.4-7.4-2.7
			c-1.8,2.2-2.7,5.1-2.2,8c0.6,3.7,1.8,7.9,4.4,10.2c4.4,3.9,15.9,3.5,19.4,3.4c0.3,0,0.6,0,0.7-0.1l0.7-1.4
			c0.6-1.9,1.2-3.9,1.8-5.8c0.8-2.4,1.6-4.7,2.4-7.1c0.8-2.3,1.6-4.7,2.5-7c0.9-2.3,1.7-4.7,2.6-7l0-0.1l0.1-0.1l2.5-4.3l2.6-4.2
			c1.7-2.8,3.5-5.6,5.3-8.4c1.8-2.8,13-16.7,15-19.4L38.9,56.5C37.9,56.7,32.2,63.1,26.3,67.1z"/>
		<polygon class="st2" points="366.4,66.3 361.3,88.6 360.9,90.2 350,138 338.7,187.2 337.7,191.6 333.5,209.6 449.5,236.2 
			449.5,85.4 		"/>
	</g>
</g>
</svg>
