<?xml version="1.0" encoding="utf-8"?>
<!-- Generator: Adobe Illustrator 26.2.1, SVG Export Plug-In . SVG Version: 6.00 Build 0)  -->
<svg version="1.1" id="Layer_1" xmlns="http://www.w3.org/2000/svg" xmlns:xlink="http://www.w3.org/1999/xlink" x="0px" y="0px"
	 viewBox="0 0 268.6 125.1" style="enable-background:new 0 0 268.6 125.1;" xml:space="preserve">
<style type="text/css">
	.st0{fill:#010101;}
	.st1{fill:#FFFFFF;}
</style>
<g>
	<g>
		<path class="st0" d="M35.5,44.7c-2.8-1.8-6.2-2.1-9.3-3.4c0.3,0.1,0.5-0.4,0.9,0c-0.4-0.5,4.3-1.1,4.7-1.1c2.1-0.3,4.3-1.2,6.2-2
			c3.9-1.8,7.5-4.8,8.2-9.1c0.5-3.5,1.1-7.2-0.9-10.4c-2.3-3.8-6.7-6.5-10.8-8c-4.3-1.6-8.9-1.1-13.3-1.8c-2.6-0.1-5.3-0.1-7.9,0.4
			C11,9.7,8.4,9,6.4,10.3C5,11.1,4.3,12.6,4,14.1c-0.3,2,0.2,3.9,0.1,5.8C4,22,3.9,24,3.8,26.1C3.4,30.5,3.1,34.8,3.2,39
			C3,44.2,3,49.2,2.6,54.4C2.4,65.8,1.5,77.2,2,88.8c0.1,1.9-0.2,3.8-0.2,5.7c0,1.9,0.3,4,0,5.9c-0.5,3.6-0.1,7.5-0.2,11.2
			c-0.1,1.8-0.2,3.5-0.3,5.3c-0.1,0.9-0.1,3.1,0.5,3.9c2.3,3.1,9.1,1.6,12.3,1.6c6-0.1,12.1-0.2,18.1,0c1,0,2-0.5,2.9-0.8
			c1.9-0.6,3.8-1.4,5.5-2.4c3.4-1.9,7.1-4.4,9.3-7.7c3.6-5.7,5-12.5,4.9-19.2C53.7,76,53.7,52.1,35.5,44.7z"/>
		<path class="st0" d="M128.5,14.8c-2.9-6-10.6-6.9-15.7-2.7c-5.3,4.9-7.7,12.2-10,19c-5.5,20.1-6.9,41.2-4,61.9
			c1.7,18.6,15,47.5,29.4,18.1c5.9-12.8,7.9-26.8,9-40.7C137.9,52.4,138.2,31,128.5,14.8z"/>
		<path class="st0" d="M189.7,110.2c0-0.1,0-0.1,0-0.2c0.2-1.6,0-3.3,0-4.9c-0.2-13.9-1.3-27.7-0.7-41.7c0-4.9,0-9.9,0.1-14.7
			c0.1-5.1,0.2-10.1,0.5-15.2c0.1-3.7,0.3-7.4,0.2-11c0-1.8-0.1-3.5-0.2-5.3c-0.2-1.7,0.2-3.3-0.3-5c-0.2-0.5-0.4-0.9-0.7-1.3
			c-0.5-0.4-1.2-0.4-1.8-0.3c-2.2,0.3-4.3-0.1-6.5-0.1c-2,0.4-4.7-1.4-6.3,0.7c-3,4.4-5.1,9.5-8,13.9c-2.5-3.4-5.9-6.8-8.7-10.1
			c-1.2-1.4-2.8-2.4-4.1-3.6c-1.2-1.1-2.7-0.9-4.2-0.9c-2.6,0-6.9-0.6-7.3,2.9c-0.1,1.8-0.4,3.7-0.4,5.5c-0.1,1.9-0.3,3.9-0.1,5.7
			c0.1,1.4-0.1,2.9-0.1,4.4c-0.2,2.7-0.2,5.9-0.2,8.7c0,1.5-0.2,3,0,4.6c0.3,3.2,0.4,6.4-0.3,9.5c-0.4,1.8-0.4,3.7-0.6,5.5l-0.6,5.4
			c-0.4,3.6-0.3,7.3-0.5,10.9c-0.3,4.8-0.9,9.5-0.9,14.3c0,3.3,0.1,6.7,0,10c-0.1,6.5-1.7,12.8-1,19.3c0.3,2.4,0.2,6.1,3.6,5.9
			c3.2-0.2,6.4,0.2,9.6,0.1c1.7,0,3.1-0.1,3.1-2.1c-0.8-14.6,0.4-29.6,0.2-44c0-4.1,0.2-8.3,0.5-12.4c0.4-7,1.3-13.8,1.9-20.7
			c0-0.3-0.5-2.9,0.4-2.8c0.5,0,1.2,1.4,1.4,1.7c1.4,2.3,2.7,4.8,4.7,6.7c1.9,2,4,2.1,5.5-0.5c2.3-4.2,5.6-8,7.5-12.4
			c0.8-0.5,0.6,3.1,0.5,4.1C175.7,52,176,63.2,176,74.4c0.2,2.8,0.4,6.3,0.3,9.2c0,1.1,0.3,2.3,0.3,3.4c-0.1,4.5,0.2,9,0.1,13.4
			c-0.1,3.8-0.2,7.5-0.1,11.3c0,1.8-0.2,3.5-0.3,5.3c-0.1,1.5-0.5,4,0.5,5.3c0.4,0.6,1.2,0.7,1.9,0.8c1.8,0.3,3.6-0.2,5.3,0
			c1,0.1,2,0.2,3,0.2c0.8,0,2,0.3,2.5-0.6c0.5-1,0.5-2.6,0.5-3.7c-0.1-1.3,0-2.5,0-3.8C189.9,113.7,189.6,111.9,189.7,110.2z"/>
		<path class="st0" d="M73.3,13.8C65.8,19.6,62.6,34,60.4,43c-4.4,20.7-5.1,42.6,0,63.6c1.8,5.4,3.7,16.3,10.9,16.5
			c4.2,0.2,8.2,0.8,10.4-3.1c11.2-15.4,13.1-42.5,13.5-61.5c-0.6-12-0.9-24.7-6.2-36C86.9,16.9,79.5,9,73.3,13.8z"/>
		<path class="st0" d="M259.5,85.2c-4.3-15.7-8.4-31.9-11.8-47.7c-0.8-4-1.8-3.1,1.5-5.3c4.8-3.4,7.9-11.5,4.2-16.8
			c-2.9-6.6-11.5-6.9-17.5-6c-2.8,0.4-5.9-0.4-8.5,0.6c-0.9,3.5-0.5,7.8-0.5,11.5c-0.5,3.8-0.4,7.7-0.7,11.7
			c-1,12.8-0.8,25.3-1.5,37.7c-0.2,5.1,0.1,14.4-0.2,19.5c-0.1,0.5-0.2,0.9-0.2,1.4c-0.1,0.4-0.2,0.8-0.3,1.3
			c-0.3,5.3,0.1,14.3-0.2,19.6c0,1.3-0.1,2.6-0.2,3.9c0.3,1.7-0.9,6.4,1.2,6.9c3.7-0.5,7.5,0.6,11.2,0c0.2,0,0.5-0.1,0.7-0.2
			c0.2-0.2,0.3-0.5,0.4-0.8c0.6-2.1,0.2-4.6,0.6-6.7c-0.1-3.1,0.1-5.8,0.3-9c0-12.2,0.5-23.9,0.2-36.3c0.4-6.2-0.5-11.5,0.1-17.1
			c0.2,1.3,0.6,5.9,1.2,8c2.2,15.4,5.1,30.5,8,45.7c0.8,3.8,1.7,7.7,2.7,11.5c0.7,4.7,0.9,5.3,5.6,4.9c2.7-0.6,11,1.7,11.6-1.4
			C264.8,109.8,262,97.7,259.5,85.2z"/>
		<path class="st0" d="M222.9,34.6c-0.3-0.7-0.7-1.5-1.4-1.9c-1.5-1.1-3.6-0.2-5.1-1.3c-1-0.7-1-1.8-1-2.8c0.3-3.5,0-7,0.5-10.4
			c0.5-2.3,3.3-1.3,5-1.5c0.8-0.1,1.7-0.4,2.3-1.1c0.8-0.9,0.7-2.5,0.7-3.7c0-3.9-5.9-1.9-8.3-2.1c-5.1,0.1-10.1-0.3-15.2,0
			c-0.5,0-4.9,0.6-4.9,1.1c0.2,21.5-0.1,43-0.3,64.8c0.3,15.4,0.3,30.8,0.2,46.1c-1.7,3.5,18.9,0.7,21.9,1.6
			c2.1-0.1,5.7,0.8,4.9-2.5c-0.2-1.6,0.1-4.2-1.9-4.4c-4.7-0.3-6.2,1.3-5.5-4.7c1-15.2-0.8-30.4-0.3-45.7c1-6.2-2.1-20.3,1.5-23.8
			c0.3-0.3,1.5-0.2,1.9-0.3c0.5-0.1,1.1-0.1,1.6-0.1c3.9,0.1,4.5-3,3.7-6.4C223.1,35.2,223,34.8,222.9,34.6z"/>
	</g>
	<g>
		<path class="st1" d="M159.9,35.6c-1.5,2.7-4,6.1-4.8,8.9c4.7-8.5,9.5-16.9,13.2-26C166,23.8,162.5,30.5,159.9,35.6z"/>
		<path class="st1" d="M169.3,15.8c-0.3,0.9-0.7,1.8-1.1,2.8C168.7,17.6,169,16.7,169.3,15.8z"/>
		<path class="st1" d="M205.3,63.6c-3-1.8-10.9,13.3-13.4,15.5c-0.5,0.9-6.8,8.2-4,6c-2.6,2.4-8.5,9.8-12.3,8.8
			c-4.9-8.3,4.3-34.9,10.5-42.4c0.2-0.2,0.6,0.1,0.7,0c-2.7-1-6.8,10.9-7.8,13.3c1.7-4.4,3-9.3,6.1-13.1c3.6-3.2,2.2,6.2,1.8,7.6
			c0-0.1,0.4-2.4,0.3-2.4c-0.2,0-1.7,5.5-1.7,5.5l0.5-0.5c-0.5,0.9-1.5,1.6-0.2,2.4c1.7,0.9,4.9-1.5,5.6-3c2-5.2,1.3-14.1-5.3-14.8
			c-8.8,0.7-13.5,12.7-16.3,19.3l0.1-0.2c-5.4,10.4-34.9,66-29.3,22.7l-0.8,3.2c0.1-1.2,0.3-2.6,0.6-3.9c2-6.7,2.8-15.3,6.8-21.3
			c9.3-14.6,29.2-41.4,28.8-58.1l-0.1-0.1c-0.6-4-4.3-8.3-8.9-6.3c-4.5,2.8-7.2,8-9.8,12.4l0.1-0.1l-3.3,6.1l0.8-1.9
			c-9.9,15.3-14.4,33.6-20.3,50.9c-4.1,6.9-7.9,13.6-12.6,20.1c-11.8,16.6-1.2-17.1-4.8-7.5c0.9-3.8,2.4-8.4,4.4-12.3
			c1.1-2.4,2.5-4.5,0.4-6.7c-3.9-4.2-8.3,0.6-10.8,4.1c-4.9-19.4-20.2-1.6-23.4,8.9c-5,7.6-9,12.2-13.8,19.1
			c0.3-0.1,0.6-0.4,0.9-0.6c-2.6,2.4-8.5,9.8-12.3,8.8c-4.9-8.3,4.3-34.9,10.5-42.4c0.2-0.2,0.6,0.1,0.7,0c-2.7-1-6.8,10.9-7.8,13.3
			c1.7-4.4,3-9.3,6.1-13.1c3.6-3.2,2.2,6.2,1.8,7.6c0-0.1,0.4-2.4,0.3-2.4c-0.2,0-1.7,5.5-1.7,5.5l0.5-0.5c-0.5,0.9-1.5,1.6-0.2,2.4
			c1.7,0.9,4.9-1.5,5.6-3c2-5.2,1.3-14.1-5.3-14.8C64.2,56.4,59.5,68.4,56.7,75l0.4-0.6c-0.5,1.2-0.8,2.4-1.2,3.5
			c0.5-3.5-2.6,5.3-2.5,5.5c-1.2,4.8-3.2,16.5-0.9,20.4l0.5,1.7c-0.1-0.1-0.5-1.1-0.5-1.1c6.6,18.5,27.7-10.6,32.3-18.3
			c-0.7,4.5-0.9,12.7,5,13.1c0.1-0.1-0.1-0.1-0.4-0.3c1.5,0.2,3.2-0.2,4.4-1.2c0.1,0.2-1.1,0.9-1.1,0.9c0.6,0.8,2.9-1.5,5.2-4.2
			c6.6-7.5,7.2-11.2,12-18c-1,7-4.2,13.8-1.2,20.3c1.2,3,4,5.6,7.5,4.5c8.1-4,12-13.9,16.5-21.5c-1.9,9.3-6,22.7,1.5,30.3
			c4.9,3.8,10.5,0.1,14.5-4.2c6.4-7.4,11.8-15.5,16.4-23.9c-0.1,3.8-1.5,9.7,0.5,12.7l0.5,1.7c-0.1-0.1-0.5-1.1-0.5-1.1
			c6.6,18.1,26.5-9.2,31.4-16.8C198.4,74.6,207,67.3,205.3,63.6z M177.2,69.4v0.4c-0.1,0.1-0.1,0.1-0.1,0.2
			C177.1,69.8,177.1,69.6,177.2,69.4z M176.8,71.1l-1.5,5.2C175.8,74.5,176.3,72.8,176.8,71.1z M152,27.3c1.7-4.7,4.2-8.9,7-12.9
			c-2.1,4.6-4.8,8.9-7.1,13.3C151.9,27.6,151.9,27.4,152,27.3z M158.5,27.3c2-5.3,4.1-10.6,7-15.6c5.9-9.2,6.2-2.6,3.9,4.1
			c0.1-0.2,0.2-0.4,0.2-0.7c-4.6,14.4-13.3,28.4-21,41.7C151.6,47.3,154.6,37,158.5,27.3z M63.7,80.3l-1.5,5.2
			C62.7,83.7,63.2,82,63.7,80.3z M55,86.9c-0.1,0.4-0.3,0.8-0.3,1c0-0.5,0-1,0.5-1.3L55,86.9z M107.9,67.2c0-0.1-0.2-0.7-0.3-1.4
			C107.7,66.4,107.8,66.9,107.9,67.2z M107.8,72.7c-3.2,4.9-6.3,10.2-9.8,14.7c-0.5,0.8-3,4.3-4,4.1c-2.8-1.7,5.8-23.6,7.6-25.4
			c-1.9,0.1-7.9,19.6-8.2,21.2c0.3-3.5,8.6-31.6,13.7-23.2C106.7,66.2,109.3,71,107.8,72.7z M110.2,77.5c0.1-0.4,0.4-2.1,0.9-2.6
			L110.2,77.5z"/>
	</g>
</g>
</svg>
