<?xml version="1.0" encoding="utf-8"?>
<!-- Generator: Adobe Illustrator 26.3.1, SVG Export Plug-In . SVG Version: 6.00 Build 0)  -->
<svg version="1.1" id="Layer_1" xmlns="http://www.w3.org/2000/svg" xmlns:xlink="http://www.w3.org/1999/xlink" x="0px" y="0px"
	 viewBox="0 0 262.5 257.1" style="enable-background:new 0 0 262.5 257.1;" xml:space="preserve">
<style type="text/css">
	.st0{fill:#FFFFFF;}
	.st1{fill:#ffc02e;}
	.st2{fill:#EFAEA6;}
	.st3{fill:#211B2D;}
	.st4{fill:#3B3B4C;}
	.st5{fill:#5B5B6D;}
</style>
<g>
	<g>
		<path d="M2.3,231.7c-0.3,8.6,60.3,20.5,130.4,22.5c70.1,2.1,127.2-3.3,127.4-11.9c0.3-8.6-56.4-17.3-126.5-19.4S2.6,223,2.3,231.7
			z"/>
	</g>
	<g>
		<path class="st0" d="M30.9,234.1c-1.9,0-3.4-1.5-3.4-3.4s1.5-3.4,3.4-3.5l139.4-1.8l-78.4-113c-1.1-1.6-0.7-3.7,0.9-4.8
			c1.6-1.1,3.7-0.7,4.8,0.9l82.1,118.3c0.7,1,0.8,2.4,0.2,3.5s-1.7,1.8-3,1.9L30.9,234.1C31,234.1,30.9,234.1,30.9,234.1z"/>
	</g>
	<g>
		<ellipse class="st1" cx="105.6" cy="110.7" rx="98.1" ry="105.5"/>
	</g>
	<g>
		<path class="st0" d="M98.8,17.6H63.3c-1.2,0-2.1-1-2.1-2.1s1-2.1,2.1-2.1h35.5c1.2,0,2.1,1,2.1,2.1S100,17.6,98.8,17.6z"/>
	</g>
	<g>
		<path class="st0" d="M105.6,218.6c-13.6,0-26.8-2.9-39.2-8.5c-12-5.4-22.7-13.2-31.9-23.2C25.3,177,18,165.5,13,152.6
			c-5.2-13.3-7.9-27.4-7.9-41.9S7.8,82,13,68.7c5-12.8,12.3-24.3,21.5-34.2s20-17.7,31.9-23.2C78.8,5.7,92,2.8,105.6,2.8
			s26.8,2.9,39.2,8.5c12,5.4,22.7,13.2,31.9,23.2c9.2,9.9,16.4,21.4,21.5,34.3c5.2,13.3,7.9,27.4,7.9,41.9s-2.6,28.7-7.9,41.9
			c-5.1,12.8-12.3,24.4-21.5,34.3c-9.2,9.9-20,17.7-31.9,23.2C132.4,215.7,119.2,218.6,105.6,218.6z M105.6,7.5
			c-12.9,0-25.4,2.7-37.2,8.1C57,20.8,46.8,28.2,38,37.7S22.3,58.2,17.4,70.5c-5,12.7-7.5,26.3-7.5,40.2s2.5,27.5,7.5,40.2
			c4.8,12.3,11.7,23.3,20.6,32.8c8.8,9.5,19,16.9,30.4,22.1c11.8,5.4,24.3,8.1,37.2,8.1s25.4-2.7,37.2-8.1
			c11.4-5.2,21.6-12.6,30.4-22.1c8.8-9.5,15.7-20.5,20.6-32.8c5-12.7,7.5-26.3,7.5-40.2s-2.5-27.5-7.5-40.2
			c-4.8-12.3-11.7-23.3-20.6-32.8c-8.8-9.5-19-16.9-30.4-22.1C131,10.3,118.5,7.5,105.6,7.5z"/>
	</g>
	<g>
		<path class="st0" d="M72.1,37.6H37c-1.2,0-2.1-1-2.1-2.1c0-1.2,1-2.1,2.1-2.1h35.1c1.2,0,2.1,1,2.1,2.1
			C74.3,36.6,73.3,37.6,72.1,37.6z"/>
	</g>
	<g>
		<path class="st0" d="M56.3,62.1H19.5c-1.2,0-2.1-1-2.1-2.1s1-2.1,2.1-2.1h36.8c1.2,0,2.1,1,2.1,2.1S57.5,62.1,56.3,62.1z"/>
	</g>
	<g>
		<path class="st0" d="M47,88.1H10.2c-1.2,0-2.1-1-2.1-2.1c0-1.2,1-2.1,2.1-2.1H47c1.2,0,2.1,1,2.1,2.1S48.2,88.1,47,88.1z"/>
	</g>
	<g>
		<path class="st0" d="M44.7,121.8C44.6,121.8,44.6,121.8,44.7,121.8l-37-1.2c-1.2,0-2.1-1-2.1-2.2s1-2.1,2.1-2.1c0,0,0,0,0.1,0
			l36.9,1.2c1.2,0,2.1,1,2.1,2.2C46.7,120.9,45.8,121.8,44.7,121.8z"/>
	</g>
	<g>
		<g>
			<path class="st2" d="M105.1,197.6c-1.7,0.7-6.3,1.9-6.3,1.9l-1.6-4.7l6.8-1.8l3.1,2.5L105.1,197.6z"/>
		</g>
		<g>
			<path class="st3" d="M103.4,198.3c0.1,0.5,0.4,0.2,1.2,0.1c1.8-0.2,4,5.9,4.4,6.8c0.2,0.4,3,0.4,2.2-2c-0.7-2-3-8.6-3.8-10.9
				c-0.2-0.5-0.6-0.8-1.1-0.7c-1.8,0.2-4.2,1.1-4.1,1.8C102.3,194.4,103.2,196.1,103.4,198.3z"/>
		</g>
	</g>
	<g>
		<g>
			<path class="st2" d="M107.4,211c-1.8-0.3-6.3-1.7-6.3-1.7l1.2-4.8l6.7,2.2l1.3,3.7L107.4,211z"/>
		</g>
		<polygon class="st1" points="98.5,211.9 98.3,215.9 101.9,218.2 104,214.4 		"/>
		<g>
			<path d="M100.4,217.9c-0.3,0.4,0.2,0.4,0.9,0.9c1.5,1-0.7,7.1-0.9,8.1c-0.1,0.5,2.1,2.2,2.9-0.2c0.8-2,3.2-8.5,4-10.8
				c0.2-0.5,0-1-0.4-1.3c-1.5-1-4-1.8-4.3-1.2C102,214.2,101.6,216.1,100.4,217.9z"/>
		</g>
	</g>
	<polygon class="st1" points="78.4,221.5 77.1,225.3 79.9,228.5 83,225.5 	"/>
	<g>
		<path d="M101,211.5c-0.4-1.7-20.6-7.9-26.6-15.6c-0.3-0.4-2.9-13.7-6.3-24.9c-2.5-8.2-3.8-12.3-8.8-14c-2.7-0.9-4.9-1.2-6.7-0.7
			c-1.4,0.4-2.6,1.1-3.6,1.9c-1.4,1.1-2.4,2.4-3,3.1c0,0,2.7,2.6,5.4,5.4c2.3,2.5,4.4,8.9,5,10.3c1.3,2.9,6.1,22.1,9.9,25.8
			c6,5.8,29.1,14.6,30.7,15.3C98.6,218.7,101.4,213.2,101,211.5z"/>
	</g>
	<g>
		<path class="st0" d="M20.9,211.9c-2.1,3-0.7,5.7-1.2,7.3c-0.5,1.7-3.8,6.1,0.4,7.4c0.8,0.2,1.8-1.3,2.4-2.9c0.5-1.2,2,0.5,2.4-0.2
			c0.5-1-0.4-1.6-0.7-2.5c-0.4-1.2,0.2-5.2,0.8-6.8C26.1,211.4,20.9,211.9,20.9,211.9z"/>
	</g>
	<g>
		<path class="st0" d="M19.4,174.9c-2.1-1.2-3.6-0.7-3.6-0.7c-1.7,0.9-3.9,4.1-4.7,5.8c-0.9,1.8-0.7,1.8-0.7,1.8l3.5,0.3l1.6,0.1
			c0,0,0.3-0.7,1.4-1.6c0.7-0.6,0.2-0.8,1.8-1.3C20,178.8,19.3,176.8,19.4,174.9z"/>
	</g>
	<g>
		<path class="st0" d="M14.5,174.5c-0.1,2.1,3.9,2.5,4.4,4.1c0.3,0.9-0.7,0.5-1.1,0.9c-1.1,1.2-1.5,1-0.8,1.4
			c11.6,6.7,40.3-5.2,40.3-5.2s-0.6-10.5-5.1-13.4c-5.6-3.5-5.3-6.6-6.6-6c-5.1,2.2-27.1,13-27.1,13S16.6,170.9,14.5,174.5z"/>
	</g>
	<path class="st1" d="M19.7,176.3l-2.3,2.4l2.4,0.8l0.9-1.2c0,0,12.6-0.3,16.2-1.1c0,0-0.1-2.5-0.3-2.6c-6,1-15.9,2.8-15.9,2.8
		L19.7,176.3z"/>
	<g>
		<path d="M57.8,155.8c-0.6-1.4-0.8-1.4-2.3-2.5c-1.9-1.5,4.2,4.1,0.1,2.9c-4.9-1.4-8.9,0-14.9,1.1c-4.4,0.8-12.1,2.7-17.4,5.8
			c-1.2,0.8-2.4,1.7-3.5,2.7c-2.9,2.4-5.7,8.7-5.3,8.5c8.2,0.1,17.2,0.3,26.2-2.9c6.7-2.4,13.4,0.1,17.3-0.9
			C62,169.8,59.5,159.9,57.8,155.8z"/>
	</g>
	<g>
		<path class="st0" d="M51.5,152.6H14.7c-1.2,0-2.1-1-2.1-2.1s1-2.1,2.1-2.1h36.8c1.2,0,2.1,1,2.1,2.1S52.7,152.6,51.5,152.6z"/>
	</g>
	<g>
		<path class="st0" d="M68.2,183.6H32.9c-1.2,0-2.1-1-2.1-2.1c0-1.2,1-2.1,2.1-2.1h35.4c1.2,0,2.1,1,2.1,2.1
			C70.4,182.7,69.4,183.6,68.2,183.6z"/>
	</g>
	<g>
		<path class="st0" d="M93.9,205.2L93.9,205.2L54.6,203c-1.2-0.1-2.1-1.1-2-2.2c0.1-1.2,1.1-2.1,2.2-2L94,201c1.2,0.1,2.1,1.1,2,2.2
			C95.9,204.4,95,205.2,93.9,205.2z"/>
	</g>
	<g>
		<path class="st0" d="M142.4,218.9c-13.6,0-26.9-2.9-39.3-8.5c-12-5.5-22.8-13.3-32-23.2s-16.5-21.5-21.6-34.4
			c-5.2-13.3-7.9-27.5-7.9-42.1s2.7-28.7,7.9-42.1c5.1-12.9,12.3-24.4,21.6-34.4s20-17.8,32-23.2c12.4-5.7,25.7-8.5,39.3-8.5
			s26.9,2.9,39.3,8.5c12,5.5,22.8,13.3,32,23.2s16.5,21.5,21.6,34.4c5.2,13.3,7.9,27.5,7.9,42.1s-2.7,28.7-7.9,42.1
			c-5.1,12.9-12.3,24.4-21.6,34.4s-20,17.8-32,23.2C169.3,216,156,218.9,142.4,218.9z M142.4,7.9c-12.9,0-25.3,2.7-37.1,8.1
			C94,21.1,83.8,28.5,75,37.9S59.3,58.3,54.5,70.6c-5,12.7-7.5,26.2-7.5,40.1s2.5,27.4,7.5,40.1C59.3,163,66.2,174,75,183.5
			c8.8,9.4,19,16.8,30.3,22c11.7,5.3,24.2,8.1,37.1,8.1s25.3-2.7,37.1-8.1c11.4-5.2,21.6-12.6,30.3-22c8.8-9.4,15.7-20.4,20.5-32.7
			c5-12.7,7.5-26.2,7.5-40.1s-2.5-27.4-7.5-40.1c-4.8-12.2-11.7-23.2-20.5-32.7c-8.8-9.4-19-16.8-30.3-22
			C167.7,10.6,155.3,7.9,142.4,7.9z"/>
	</g>
	<g>
		<g>
			<path class="st0" d="M237.1,111.1c0,47.7-33.6,87.6-76.1,96.9c-6.2,1.4-12.5,2.1-19,2.1c-51,0-92.4-44.3-92.4-99s41.4-99,92.4-99
				c12.3,0,24.1,2.6,35.1,7.2l0,0C211.8,34,237.1,69.6,237.1,111.1z"/>
		</g>
		<g>
			<g>
				<path d="M145.1,33.7L145.1,33.7c-1.8,0-3.2-1.4-3.2-3.2v-8.6c0-1.8,1.4-3.2,3.2-3.2l0,0c1.8,0,3.2,1.4,3.2,3.2v8.6
					C148.4,32.3,146.9,33.7,145.1,33.7z"/>
			</g>
			<g>
				<path d="M145.1,203L145.1,203c-1.8,0-3.2-1.4-3.2-3.2v-8.6c0-1.8,1.4-3.2,3.2-3.2l0,0c1.8,0,3.2,1.4,3.2,3.2v8.6
					C148.4,201.5,146.9,203,145.1,203z"/>
			</g>
			<g>
				<path d="M217.2,110.7L217.2,110.7c0-1.9,1.5-3.5,3.5-3.5h7.1c1.9,0,3.5,1.5,3.5,3.5l0,0c0,1.9-1.5,3.5-3.5,3.5h-7.1
					C218.8,114.2,217.2,112.6,217.2,110.7z"/>
			</g>
			<g>
				<path d="M58,107.3L58,107.3c0-1.9,1.5-3.5,3.5-3.5h7.1c1.9,0,3.5,1.5,3.5,3.5l0,0c0,1.9-1.5,3.5-3.5,3.5h-7.1
					C59.5,110.7,58,109.2,58,107.3z"/>
			</g>
			<g>
				<g>
					<path d="M101.1,30.2L101.1,30.2c1.5-1,3.5-0.4,4.4,1.3l3.8,7c0.9,1.7,0.4,3.8-1.2,4.7l0,0c-1.5,1-3.5,0.4-4.4-1.3l-3.8-7
						C99.1,33.3,99.6,31.1,101.1,30.2z"/>
				</g>
				<g>
					<path d="M69.3,62.7L69.3,62.7c1-1.6,3-2.1,4.5-1l6.4,4.4c1.5,1,1.9,3.2,1,4.8l0,0c-1,1.6-3,2.1-4.5,1l-6.4-4.4
						C68.7,66.5,68.3,64.3,69.3,62.7z"/>
				</g>
			</g>
			<g>
				<g>
					<path d="M188.5,32.2L188.5,32.2c-1.5-1-3.5-0.4-4.4,1.3l-3.8,7c-0.9,1.7-0.4,3.8,1.2,4.7l0,0c1.5,1,3.5,0.4,4.4-1.3l3.8-7
						C190.6,35.2,190.1,33.1,188.5,32.2z"/>
				</g>
				<g>
					<path d="M220.4,64.7L220.4,64.7c-1-1.6-3-2.1-4.5-1l-6.4,4.4c-1.5,1-1.9,3.2-1,4.8l0,0c1,1.6,3,2.1,4.5,1l6.4-4.4
						C220.9,68.5,221.4,66.3,220.4,64.7z"/>
				</g>
			</g>
			<g>
				<g>
					<path d="M186.9,191.2L186.9,191.2c-1.5,1-3.5,0.4-4.4-1.3l-3.8-7c-0.9-1.7-0.4-3.8,1.2-4.7l0,0c1.5-1,3.5-0.4,4.4,1.3l3.8,7
						C189,188.2,188.4,190.3,186.9,191.2z"/>
				</g>
				<g>
					<path d="M218.8,158.7L218.8,158.7c-1,1.6-3,2.1-4.5,1l-6.4-4.4c-1.5-1-1.9-3.2-1-4.8l0,0c1-1.6,3-2.1,4.5-1l6.4,4.4
						C219.3,155,219.7,157.1,218.8,158.7z"/>
				</g>
			</g>
			<g>
				<path d="M96.8,189.1L96.8,189.1c1.5,1,3.5,0.4,4.4-1.3l3.8-7c0.9-1.7,0.4-3.8-1.2-4.7l0,0c-1.5-1-3.5-0.4-4.4,1.3l-3.8,7
					C94.8,186,95.3,188.1,96.8,189.1z"/>
			</g>
			<g>
				<path d="M68.2,155L68.2,155c1,1.6,3,2.1,4.5,1l6.4-4.4c1.5-1,1.9-3.2,1-4.8l0,0c-1-1.6-3-2.1-4.5-1l-6.4,4.4
					C67.6,151.2,67.2,153.4,68.2,155z"/>
			</g>
		</g>
		<g>
			<path d="M145.8,112.9c-10.3,6.2-23.5,16-29,17.2c-2.4,0.5-10,1.6-10.7,0.1c-0.6-1.4,4.4-9.1,6.6-9.9s29.6-12.4,31.1-11.7
				C145.4,109.4,145.8,112.9,145.8,112.9z"/>
		</g>
		<g>
			<path d="M144.1,108.4c18.8,6,44.8,12.9,52.8,17c3.5,1.8,14.6,6.8,13.5,9.1c-1,2.2-14.2,0.4-17.6-1.1c-3.5-1.5-49-19.7-50.3-21.4
				C141.2,110.3,144.1,108.4,144.1,108.4z"/>
		</g>
		<g>
			<ellipse class="st4" cx="144.5" cy="110.7" rx="6.6" ry="7.1"/>
		</g>
		<g>
			<ellipse class="st5" cx="143.5" cy="111.5" rx="4.2" ry="4.5"/>
		</g>
	</g>
	<g>
		<g>
			<circle cx="143.2" cy="110.8" r="9.1"/>
		</g>
		<g>
			<path class="st0" d="M232,243.9l-29.8-46.1l-5.7,4.2l27,40.5H92.1c-1.7,0-3.2,1.4-3.2,3.2c0,1.7,1.4,3.2,3.2,3.2h137.2
				c1.2,0,2.2-0.6,2.8-1.7S232.7,244.9,232,243.9z"/>
		</g>
	</g>
	<g>
		<path d="M16.8,180.6c3.4,11.4,4.3,13.6,4.3,17.4c0,3.8-2.1,18.8-2.6,20.2c-0.5,1.3,4.7,0.5,6.5-0.4c1.9-0.9,2.3-15.5,3.1-19.9
			c0.6-3.6-0.8-10.5,1.4-12.3c1.8-1.5,12.1-2,16.1-3.3c2.6-0.8,6.8-3,11.7-2.9c3,0,2.2-3.6,0.8-4.5c-2.4-1.6-9.4,2.3-16.5,3.8
			c-2.5,0.5-4.6,0.3-16.8,1.8C20.5,181,16.8,180.6,16.8,180.6z"/>
	</g>
	<g>
		<g>
			<path class="st0" d="M35.6,208.8c1.3,3.4-0.7,5.7-0.7,7.4c0.1,1.7,2.1,6.9-2.3,7c-0.9,0-1.4-1.7-1.6-3.4
				c-0.2-1.3-2.1-0.1-2.2-0.8c-0.2-1.1,0.8-1.5,1.3-2.3c0.7-1.1,1.1-5.1,0.9-6.8C30.7,206.9,35.6,208.8,35.6,208.8z"/>
		</g>
		<g>
			<path d="M20,171.6c8.7,14,11.4,19,11.5,22.3s-1.8,19.2-1.5,20c0.8,2,6.9-1.2,6.9-1.2c0.2-1.5,1.8-15.1,2.1-18.9
				c0.4-5.3-7.6-21.6-7.6-21.6s-2.1-7.6-6.5-6.7C20.5,166.5,20,171.6,20,171.6z"/>
		</g>
	</g>
	<g>
		<g>
			<g>
				<path class="st0" d="M12.3,188.4c1.4-0.7,4.8-0.8,4.2-1.7c-0.5-0.9,2.9-1.5,2.4-2.4c-1.3-2.4-4.4-4.1-5.7-3.8
					c-1.3,0.4-4.3,2.4-4.3,2.4L12.3,188.4z"/>
			</g>
			<g>
				<path d="M12.1,185.2c0.5,0.7,0.7,0.6,0.8,1.3s-1.2,0.2-0.8,1.2s1,2.1,0,2.9c-1.5,1.1-2.1-0.4-2.4-1.4c-0.2-0.6-1.5,0-2.1-1.2
					c-0.5-0.9,0.1-1.1-0.3-1.9c-0.2-0.5-1.6-0.9-1.4-2c0.2-2,2.2-1.6,2.6-3.4c0.5-2.1,5.1-0.7,5-0.2c-0.1,0.6-1.9,0.9-1.9,1.5
					c-0.1,0.9,0.5,0.7,1.3,0.9c0.9,0.2,1.5,1.3,0.1,1.2C11.5,184,11.7,184.6,12.1,185.2z"/>
			</g>
		</g>
	</g>
	<path d="M15.9,173.7c0,0-1.2,0.1-1.4,0.6s-0.2,1-0.2,1l3,3.4l-0.6,1.9l1.5,0.8l2.5-2.3l-1.9-1.2l1.6-1.4L15.9,173.7z"/>
	<g>
		<path d="M78.3,227.5c-0.5,0.3,0,0.5,0.4,1.2c0.9,1.6-3.9,6-4.6,6.7c-0.3,0.4,0.8,2.9,2.7,1.2c1.6-1.5,6.8-6.1,8.5-7.7
			c0.4-0.3,0.5-0.9,0.2-1.3c-0.8-1.6-2.7-3.5-3.2-3.1C81.4,225,80.2,226.5,78.3,227.5z"/>
	</g>
	<polygon points="36,174.4 36.3,177.5 36.6,177.5 36.6,174.3 	"/>
	<path class="st1" d="M35.7,194.3c-0.3-0.2-1-1.7-0.8-2.4c0.2-0.6,2.9-13.8,1.8-14.7c-0.1-0.5-0.1-3.5-0.1-2.6
		c0.2-0.1,0.7,1.5,0.8,3.9c0.3,4.5,0.4,11.6-0.3,14C37,193,36,194.5,35.7,194.3z"/>
	<circle cx="41.2" cy="175.2" r="0.4"/>
	<circle cx="47.1" cy="173.8" r="0.4"/>
	<circle cx="54.1" cy="173" r="0.4"/>
	<path d="M80.5,220.7c-1.5-1.1-20.4-17.1-17.3-19.9c1.7-1.5,4.8-8.3,7.3-14.3c-3.3-3.6-6.3-7.4-9.1-11.4
		c-4.3,10.1-10.6,21.3-10.2,26.4c0.5,6.4,25.4,29.6,27.1,26.7C80,225.3,82,221.8,80.5,220.7z"/>
	<g>
		<path class="st0" d="M68.2,179.4H55.7v4.3h12.6c1.2,0,2.1-1,2.1-2.1C70.4,180.3,69.4,179.4,68.2,179.4z"/>
	</g>
</g>
<path d="M142.5,6.8c-53.2,0-96.3,46.6-96.3,104c0,57.4,43.1,104,96.3,104s96.3-46.6,96.3-104C238.8,53.3,195.7,6.8,142.5,6.8z
	 M142.5,209.4c-50.5,0-91.4-44.2-91.4-98.7c0-54.5,40.9-98.7,91.4-98.7c50.5,0,91.4,44.2,91.4,98.7
	C233.9,165.3,193,209.4,142.5,209.4z"/>
</svg>
